<mxfile host="app.diagrams.net" modified="2022-10-14T12:34:47.193Z" agent="5.0 (Windows)" etag="9Ec_9eHw28qI9yA9fXGC" version="20.4.0" type="github">
  <diagram id="ULDQTsybcPubR5Zz3P0X" name="Page-1">
    <mxGraphModel dx="3339" dy="2037" grid="1" gridSize="10" guides="1" tooltips="1" connect="1" arrows="1" fold="1" page="1" pageScale="1" pageWidth="850" pageHeight="1100" math="0" shadow="0">
      <root>
        <mxCell id="0" />
        <mxCell id="1" parent="0" />
        <mxCell id="iH67yDx8k5spiiFpo-aq-360" value="" style="whiteSpace=wrap;html=1;fontSize=10;fillColor=none;" parent="1" vertex="1">
          <mxGeometry x="680" y="310" width="1010" height="270" as="geometry" />
        </mxCell>
        <mxCell id="iH67yDx8k5spiiFpo-aq-255" value="" style="whiteSpace=wrap;html=1;fontSize=10;fillColor=none;" parent="1" vertex="1">
          <mxGeometry x="5159" y="-970" width="800" height="780" as="geometry" />
        </mxCell>
        <mxCell id="iH67yDx8k5spiiFpo-aq-124" value="" style="whiteSpace=wrap;html=1;fontSize=10;fillColor=none;" parent="1" vertex="1">
          <mxGeometry x="5189" y="569" width="650" height="480" as="geometry" />
        </mxCell>
        <mxCell id="iH67yDx8k5spiiFpo-aq-78" value="" style="whiteSpace=wrap;html=1;aspect=fixed;fontSize=10;fillColor=none;strokeColor=#006600;" parent="1" vertex="1">
          <mxGeometry x="70" y="1127" width="431" height="431" as="geometry" />
        </mxCell>
        <mxCell id="iH67yDx8k5spiiFpo-aq-108" value="" style="whiteSpace=wrap;html=1;aspect=fixed;fontSize=10;fillColor=none;" parent="1" vertex="1">
          <mxGeometry x="70" y="647" width="431" height="431" as="geometry" />
        </mxCell>
        <mxCell id="iH67yDx8k5spiiFpo-aq-93" value="" style="whiteSpace=wrap;html=1;aspect=fixed;fontSize=10;fillColor=none;strokeColor=#006600;" parent="1" vertex="1">
          <mxGeometry x="680" y="1127" width="431" height="431" as="geometry" />
        </mxCell>
        <mxCell id="iH67yDx8k5spiiFpo-aq-1" value="Ввести имейл" style="ellipse;whiteSpace=wrap;html=1;flipH=1;" parent="1" vertex="1">
          <mxGeometry x="5453" y="-545" width="120" height="80" as="geometry" />
        </mxCell>
        <mxCell id="iH67yDx8k5spiiFpo-aq-3" value="Просмотреть личный кабинет" style="ellipse;whiteSpace=wrap;html=1;" parent="1" vertex="1">
          <mxGeometry x="5175" y="-705" width="120" height="80" as="geometry" />
        </mxCell>
        <mxCell id="iH67yDx8k5spiiFpo-aq-4" value="Выбрать валюту при внесении данных" style="ellipse;whiteSpace=wrap;html=1;" parent="1" vertex="1">
          <mxGeometry x="5477" y="857" width="120" height="80" as="geometry" />
        </mxCell>
        <mxCell id="iH67yDx8k5spiiFpo-aq-5" value="Сменить пароль" style="ellipse;whiteSpace=wrap;html=1;" parent="1" vertex="1">
          <mxGeometry x="968" y="350" width="120" height="80" as="geometry" />
        </mxCell>
        <mxCell id="iH67yDx8k5spiiFpo-aq-6" value="&lt;div&gt;Выбрать категорию&lt;/div&gt;" style="ellipse;whiteSpace=wrap;html=1;" parent="1" vertex="1">
          <mxGeometry x="5477" y="755" width="120" height="80" as="geometry" />
        </mxCell>
        <mxCell id="iH67yDx8k5spiiFpo-aq-7" value="Забанить пользователя" style="ellipse;whiteSpace=wrap;html=1;" parent="1" vertex="1">
          <mxGeometry x="5673" y="-955" width="120" height="80" as="geometry" />
        </mxCell>
        <mxCell id="iH67yDx8k5spiiFpo-aq-8" value="Просмотреть список пользователей" style="ellipse;whiteSpace=wrap;html=1;" parent="1" vertex="1">
          <mxGeometry x="5453" y="-955" width="120" height="80" as="geometry" />
        </mxCell>
        <mxCell id="iH67yDx8k5spiiFpo-aq-10" value="&lt;div&gt;Удалить &lt;br&gt;&lt;/div&gt;&lt;div&gt;категорию&lt;/div&gt;" style="ellipse;whiteSpace=wrap;html=1;" parent="1" vertex="1">
          <mxGeometry x="1360" y="460" width="120" height="80" as="geometry" />
        </mxCell>
        <mxCell id="iH67yDx8k5spiiFpo-aq-11" value="Редактировать категорию" style="ellipse;whiteSpace=wrap;html=1;" parent="1" vertex="1">
          <mxGeometry x="1360" y="350" width="120" height="80" as="geometry" />
        </mxCell>
        <mxCell id="iH67yDx8k5spiiFpo-aq-19" value="Выбрать месяц отчета" style="ellipse;whiteSpace=wrap;html=1;" parent="1" vertex="1">
          <mxGeometry x="360" y="660" width="120" height="80" as="geometry" />
        </mxCell>
        <mxCell id="iH67yDx8k5spiiFpo-aq-20" value="Выбрать другой период отчета" style="ellipse;whiteSpace=wrap;html=1;" parent="1" vertex="1">
          <mxGeometry x="360" y="766" width="120" height="80" as="geometry" />
        </mxCell>
        <mxCell id="iH67yDx8k5spiiFpo-aq-22" value="Опубликовать видео" style="ellipse;whiteSpace=wrap;html=1;strokeColor=#006600;" parent="1" vertex="1">
          <mxGeometry x="360" y="1348" width="120" height="80" as="geometry" />
        </mxCell>
        <mxCell id="iH67yDx8k5spiiFpo-aq-23" value="Удалить видео" style="ellipse;whiteSpace=wrap;html=1;strokeColor=#006600;" parent="1" vertex="1">
          <mxGeometry x="140" y="1449" width="120" height="80" as="geometry" />
        </mxCell>
        <mxCell id="iH67yDx8k5spiiFpo-aq-24" value="Редактировать видео" style="ellipse;whiteSpace=wrap;html=1;strokeColor=#006600;" parent="1" vertex="1">
          <mxGeometry x="140" y="1348" width="120" height="80" as="geometry" />
        </mxCell>
        <mxCell id="iH67yDx8k5spiiFpo-aq-25" value="&lt;div&gt;Добавить видео&lt;/div&gt;" style="ellipse;whiteSpace=wrap;html=1;strokeColor=#006600;" parent="1" vertex="1">
          <mxGeometry x="140" y="1246" width="120" height="80" as="geometry" />
        </mxCell>
        <mxCell id="iH67yDx8k5spiiFpo-aq-26" value="&lt;div&gt;Просмотреть &lt;br&gt;&lt;/div&gt;&lt;div&gt;видео&lt;/div&gt;" style="ellipse;whiteSpace=wrap;html=1;strokeColor=#006600;" parent="1" vertex="1">
          <mxGeometry x="140" y="1145" width="120" height="80" as="geometry" />
        </mxCell>
        <mxCell id="iH67yDx8k5spiiFpo-aq-29" value="&lt;div&gt;Авторизоваться&lt;/div&gt;&lt;div&gt;в приложении&lt;br&gt;&lt;/div&gt;" style="ellipse;whiteSpace=wrap;html=1;flipH=1;" parent="1" vertex="1">
          <mxGeometry x="5235" y="-605" width="120" height="80" as="geometry" />
        </mxCell>
        <mxCell id="iH67yDx8k5spiiFpo-aq-30" value="Ввести номер телефона" style="ellipse;whiteSpace=wrap;html=1;flipH=1;" parent="1" vertex="1">
          <mxGeometry x="5453" y="-285" width="120" height="80" as="geometry" />
        </mxCell>
        <mxCell id="iH67yDx8k5spiiFpo-aq-31" value="Войти как администратор" style="ellipse;whiteSpace=wrap;html=1;" parent="1" vertex="1">
          <mxGeometry x="5240" y="-821" width="120" height="80" as="geometry" />
        </mxCell>
        <mxCell id="iH67yDx8k5spiiFpo-aq-33" value="Исключить категории для отчета" style="ellipse;whiteSpace=wrap;html=1;" parent="1" vertex="1">
          <mxGeometry x="360" y="868" width="120" height="80" as="geometry" />
        </mxCell>
        <mxCell id="iH67yDx8k5spiiFpo-aq-42" value="extend" style="text;html=1;align=center;verticalAlign=middle;resizable=0;points=[];autosize=1;strokeColor=none;fillColor=none;fontSize=10;" parent="1" vertex="1">
          <mxGeometry x="290" y="1362" width="50" height="30" as="geometry" />
        </mxCell>
        <mxCell id="iH67yDx8k5spiiFpo-aq-43" value="" style="endArrow=classic;html=1;rounded=0;dashed=1;strokeColor=#006600;" parent="1" source="iH67yDx8k5spiiFpo-aq-22" target="iH67yDx8k5spiiFpo-aq-24" edge="1">
          <mxGeometry width="50" height="50" relative="1" as="geometry">
            <mxPoint x="340" y="1400" as="sourcePoint" />
            <mxPoint x="269.9999999999999" y="1400" as="targetPoint" />
          </mxGeometry>
        </mxCell>
        <mxCell id="iH67yDx8k5spiiFpo-aq-50" value="" style="endArrow=classic;html=1;rounded=0;dashed=1;" parent="1" source="iH67yDx8k5spiiFpo-aq-7" target="iH67yDx8k5spiiFpo-aq-8" edge="1">
          <mxGeometry width="50" height="50" relative="1" as="geometry">
            <mxPoint x="5673" y="-915" as="sourcePoint" />
            <mxPoint x="5575" y="-895" as="targetPoint" />
          </mxGeometry>
        </mxCell>
        <mxCell id="iH67yDx8k5spiiFpo-aq-51" value="extend" style="text;html=1;align=center;verticalAlign=middle;resizable=0;points=[];autosize=1;strokeColor=none;fillColor=none;fontSize=10;flipV=1;flipH=1;" parent="1" vertex="1">
          <mxGeometry x="5599" y="-940" width="50" height="30" as="geometry" />
        </mxCell>
        <mxCell id="iH67yDx8k5spiiFpo-aq-52" value="" style="endArrow=classic;html=1;rounded=0;dashed=1;endFill=1;startArrow=none;startFill=0;strokeColor=#009900;" parent="1" source="iH67yDx8k5spiiFpo-aq-4" target="iH67yDx8k5spiiFpo-aq-127" edge="1">
          <mxGeometry width="50" height="50" relative="1" as="geometry">
            <mxPoint x="4868" y="359" as="sourcePoint" />
            <mxPoint x="4769" y="359" as="targetPoint" />
          </mxGeometry>
        </mxCell>
        <mxCell id="iH67yDx8k5spiiFpo-aq-55" value="" style="endArrow=none;html=1;rounded=0;dashed=1;exitX=0;exitY=0.5;exitDx=0;exitDy=0;entryX=1;entryY=0.5;entryDx=0;entryDy=0;endFill=0;startArrow=classic;startFill=1;strokeColor=#009900;" parent="1" source="iH67yDx8k5spiiFpo-aq-6" target="iH67yDx8k5spiiFpo-aq-127" edge="1">
          <mxGeometry width="50" height="50" relative="1" as="geometry">
            <mxPoint x="4879" y="369" as="sourcePoint" />
            <mxPoint x="4755.08" y="385.6399999999999" as="targetPoint" />
          </mxGeometry>
        </mxCell>
        <mxCell id="iH67yDx8k5spiiFpo-aq-58" value="" style="endArrow=classic;html=1;rounded=0;dashed=1;fontSize=10;exitX=0;exitY=0.5;exitDx=0;exitDy=0;" parent="1" source="iH67yDx8k5spiiFpo-aq-11" target="iH67yDx8k5spiiFpo-aq-152" edge="1">
          <mxGeometry width="50" height="50" relative="1" as="geometry">
            <mxPoint x="470" y="140" as="sourcePoint" />
            <mxPoint x="1264.9694400941185" y="513.9672466392149" as="targetPoint" />
          </mxGeometry>
        </mxCell>
        <mxCell id="iH67yDx8k5spiiFpo-aq-59" value="" style="endArrow=classic;html=1;rounded=0;dashed=1;fontSize=10;" parent="1" source="iH67yDx8k5spiiFpo-aq-10" target="iH67yDx8k5spiiFpo-aq-152" edge="1">
          <mxGeometry width="50" height="50" relative="1" as="geometry">
            <mxPoint x="470" y="140" as="sourcePoint" />
            <mxPoint x="1263.7600000000002" y="549.1999999999998" as="targetPoint" />
          </mxGeometry>
        </mxCell>
        <mxCell id="iH67yDx8k5spiiFpo-aq-62" value="" style="endArrow=classic;html=1;rounded=0;dashed=1;fontSize=10;exitX=1;exitY=0.5;exitDx=0;exitDy=0;" parent="1" source="iH67yDx8k5spiiFpo-aq-6" target="iH67yDx8k5spiiFpo-aq-63" edge="1">
          <mxGeometry width="50" height="50" relative="1" as="geometry">
            <mxPoint x="4959" y="269" as="sourcePoint" />
            <mxPoint x="5009" y="219" as="targetPoint" />
          </mxGeometry>
        </mxCell>
        <mxCell id="iH67yDx8k5spiiFpo-aq-63" value="Просмотреть список категорий" style="ellipse;whiteSpace=wrap;html=1;" parent="1" vertex="1">
          <mxGeometry x="5689" y="624" width="120" height="80" as="geometry" />
        </mxCell>
        <mxCell id="iH67yDx8k5spiiFpo-aq-75" value="" style="endArrow=none;html=1;rounded=0;fontSize=10;entryX=0;entryY=0.5;entryDx=0;entryDy=0;exitX=1;exitY=0.3333333333333333;exitDx=0;exitDy=0;exitPerimeter=0;strokeColor=#006600;" parent="1" source="iH67yDx8k5spiiFpo-aq-288" target="iH67yDx8k5spiiFpo-aq-25" edge="1">
          <mxGeometry width="50" height="50" relative="1" as="geometry">
            <mxPoint x="50" y="1289.4285714285716" as="sourcePoint" />
            <mxPoint x="120" y="1310" as="targetPoint" />
          </mxGeometry>
        </mxCell>
        <mxCell id="iH67yDx8k5spiiFpo-aq-76" value="" style="endArrow=none;html=1;rounded=0;fontSize=10;entryX=0;entryY=0.4;entryDx=0;entryDy=0;entryPerimeter=0;strokeColor=#006600;" parent="1" source="iH67yDx8k5spiiFpo-aq-288" target="iH67yDx8k5spiiFpo-aq-24" edge="1">
          <mxGeometry width="50" height="50" relative="1" as="geometry">
            <mxPoint x="50" y="1302.8571428571431" as="sourcePoint" />
            <mxPoint x="130" y="1400" as="targetPoint" />
          </mxGeometry>
        </mxCell>
        <mxCell id="iH67yDx8k5spiiFpo-aq-77" value="" style="endArrow=none;html=1;rounded=0;fontSize=10;entryX=0;entryY=0.5;entryDx=0;entryDy=0;strokeColor=#006600;" parent="1" source="iH67yDx8k5spiiFpo-aq-288" target="iH67yDx8k5spiiFpo-aq-23" edge="1">
          <mxGeometry width="50" height="50" relative="1" as="geometry">
            <mxPoint x="50" y="1320" as="sourcePoint" />
            <mxPoint x="130" y="1400" as="targetPoint" />
          </mxGeometry>
        </mxCell>
        <mxCell id="iH67yDx8k5spiiFpo-aq-80" value="Удалить запись на странице Помощь" style="ellipse;whiteSpace=wrap;html=1;strokeColor=#006600;" parent="1" vertex="1">
          <mxGeometry x="750" y="1449" width="120" height="80" as="geometry" />
        </mxCell>
        <mxCell id="iH67yDx8k5spiiFpo-aq-81" value="Редактировать запись на станице Помощь" style="ellipse;whiteSpace=wrap;html=1;strokeColor=#006600;" parent="1" vertex="1">
          <mxGeometry x="750" y="1348" width="120" height="80" as="geometry" />
        </mxCell>
        <mxCell id="iH67yDx8k5spiiFpo-aq-82" value="&lt;div&gt;Добавить запись &lt;br&gt;&lt;/div&gt;&lt;div&gt;на странице Помощь&lt;br&gt;&lt;/div&gt;" style="ellipse;whiteSpace=wrap;html=1;strokeColor=#006600;" parent="1" vertex="1">
          <mxGeometry x="750" y="1246" width="120" height="80" as="geometry" />
        </mxCell>
        <mxCell id="iH67yDx8k5spiiFpo-aq-83" value="&lt;div&gt;Просмотреть страницу Помощь&lt;br&gt;&lt;/div&gt;" style="ellipse;whiteSpace=wrap;html=1;strokeColor=#006600;" parent="1" vertex="1">
          <mxGeometry x="750" y="1145" width="120" height="80" as="geometry" />
        </mxCell>
        <mxCell id="iH67yDx8k5spiiFpo-aq-86" value="&lt;div&gt;Common&lt;/div&gt;&lt;div&gt;User&lt;br&gt;&lt;/div&gt;" style="shape=umlActor;verticalLabelPosition=bottom;verticalAlign=top;html=1;outlineConnect=0;fontSize=10;strokeColor=#006600;" parent="1" vertex="1">
          <mxGeometry x="615" y="1155" width="30" height="60" as="geometry" />
        </mxCell>
        <mxCell id="iH67yDx8k5spiiFpo-aq-87" value="Admin" style="shape=umlActor;verticalLabelPosition=bottom;verticalAlign=top;html=1;outlineConnect=0;fontSize=10;strokeColor=#006600;" parent="1" vertex="1">
          <mxGeometry x="615" y="1351" width="30" height="60" as="geometry" />
        </mxCell>
        <mxCell id="iH67yDx8k5spiiFpo-aq-90" value="" style="endArrow=none;html=1;rounded=0;fontSize=10;entryX=0;entryY=0.5;entryDx=0;entryDy=0;strokeColor=#006600;" parent="1" source="iH67yDx8k5spiiFpo-aq-87" target="iH67yDx8k5spiiFpo-aq-82" edge="1">
          <mxGeometry width="50" height="50" relative="1" as="geometry">
            <mxPoint x="680" y="1360" as="sourcePoint" />
            <mxPoint x="730" y="1310" as="targetPoint" />
          </mxGeometry>
        </mxCell>
        <mxCell id="iH67yDx8k5spiiFpo-aq-91" value="" style="endArrow=none;html=1;rounded=0;fontSize=10;entryX=0;entryY=0.4;entryDx=0;entryDy=0;entryPerimeter=0;strokeColor=#006600;" parent="1" source="iH67yDx8k5spiiFpo-aq-87" target="iH67yDx8k5spiiFpo-aq-81" edge="1">
          <mxGeometry width="50" height="50" relative="1" as="geometry">
            <mxPoint x="690" y="1450" as="sourcePoint" />
            <mxPoint x="740" y="1400" as="targetPoint" />
          </mxGeometry>
        </mxCell>
        <mxCell id="iH67yDx8k5spiiFpo-aq-92" value="" style="endArrow=none;html=1;rounded=0;fontSize=10;exitX=1;exitY=1;exitDx=0;exitDy=0;exitPerimeter=0;entryX=0;entryY=0.5;entryDx=0;entryDy=0;strokeColor=#006600;" parent="1" source="iH67yDx8k5spiiFpo-aq-87" target="iH67yDx8k5spiiFpo-aq-80" edge="1">
          <mxGeometry width="50" height="50" relative="1" as="geometry">
            <mxPoint x="690" y="1450" as="sourcePoint" />
            <mxPoint x="740" y="1400" as="targetPoint" />
          </mxGeometry>
        </mxCell>
        <mxCell id="iH67yDx8k5spiiFpo-aq-94" value="Вернуть категории для отчета" style="ellipse;whiteSpace=wrap;html=1;" parent="1" vertex="1">
          <mxGeometry x="360" y="971" width="120" height="80" as="geometry" />
        </mxCell>
        <mxCell id="iH67yDx8k5spiiFpo-aq-98" value="&lt;div&gt;Просмотреть &lt;br&gt;&lt;/div&gt;&lt;div&gt;страницу отчета&lt;br&gt;&lt;/div&gt;" style="ellipse;whiteSpace=wrap;html=1;" parent="1" vertex="1">
          <mxGeometry x="140" y="815" width="120" height="80" as="geometry" />
        </mxCell>
        <mxCell id="iH67yDx8k5spiiFpo-aq-99" value="extend" style="text;html=1;align=center;verticalAlign=middle;resizable=0;points=[];autosize=1;strokeColor=none;fillColor=none;fontSize=10;rotation=18;" parent="1" vertex="1">
          <mxGeometry x="299.5" y="865" width="50" height="30" as="geometry" />
        </mxCell>
        <mxCell id="iH67yDx8k5spiiFpo-aq-101" value="&lt;div&gt;Common&lt;/div&gt;&lt;div&gt;User&lt;br&gt;&lt;/div&gt;" style="shape=umlActor;verticalLabelPosition=bottom;verticalAlign=top;html=1;outlineConnect=0;fontSize=10;" parent="1" vertex="1">
          <mxGeometry x="-60" y="750" width="30" height="60" as="geometry" />
        </mxCell>
        <mxCell id="iH67yDx8k5spiiFpo-aq-102" value="User" style="shape=umlActor;verticalLabelPosition=bottom;verticalAlign=top;html=1;outlineConnect=0;fontSize=10;" parent="1" vertex="1">
          <mxGeometry x="20" y="825" width="30" height="60" as="geometry" />
        </mxCell>
        <mxCell id="iH67yDx8k5spiiFpo-aq-104" value="" style="endArrow=none;html=1;rounded=0;fontSize=10;" parent="1" source="iH67yDx8k5spiiFpo-aq-102" target="iH67yDx8k5spiiFpo-aq-98" edge="1">
          <mxGeometry width="50" height="50" relative="1" as="geometry">
            <mxPoint x="60" y="790" as="sourcePoint" />
            <mxPoint x="140" y="770" as="targetPoint" />
          </mxGeometry>
        </mxCell>
        <mxCell id="iH67yDx8k5spiiFpo-aq-109" value="Admin" style="shape=umlActor;verticalLabelPosition=bottom;verticalAlign=top;html=1;outlineConnect=0;fontSize=10;" parent="1" vertex="1">
          <mxGeometry x="-60" y="890" width="30" height="60" as="geometry" />
        </mxCell>
        <mxCell id="iH67yDx8k5spiiFpo-aq-111" value="extend" style="text;html=1;align=center;verticalAlign=middle;resizable=0;points=[];autosize=1;strokeColor=none;fillColor=none;fontSize=10;rotation=-45;" parent="1" vertex="1">
          <mxGeometry x="249.5" y="755" width="50" height="30" as="geometry" />
        </mxCell>
        <mxCell id="iH67yDx8k5spiiFpo-aq-112" value="" style="endArrow=classic;html=1;rounded=0;dashed=1;" parent="1" target="iH67yDx8k5spiiFpo-aq-98" edge="1">
          <mxGeometry width="50" height="50" relative="1" as="geometry">
            <mxPoint x="360" y="698" as="sourcePoint" />
            <mxPoint x="260" y="698" as="targetPoint" />
          </mxGeometry>
        </mxCell>
        <mxCell id="iH67yDx8k5spiiFpo-aq-113" value="" style="endArrow=classic;html=1;rounded=0;dashed=1;" parent="1" source="iH67yDx8k5spiiFpo-aq-20" edge="1">
          <mxGeometry width="50" height="50" relative="1" as="geometry">
            <mxPoint x="370" y="708" as="sourcePoint" />
            <mxPoint x="260" y="840" as="targetPoint" />
          </mxGeometry>
        </mxCell>
        <mxCell id="iH67yDx8k5spiiFpo-aq-114" value="" style="endArrow=classic;html=1;rounded=0;dashed=1;exitX=0.024;exitY=0.404;exitDx=0;exitDy=0;exitPerimeter=0;entryX=1.003;entryY=0.681;entryDx=0;entryDy=0;entryPerimeter=0;" parent="1" source="iH67yDx8k5spiiFpo-aq-33" target="iH67yDx8k5spiiFpo-aq-98" edge="1">
          <mxGeometry width="50" height="50" relative="1" as="geometry">
            <mxPoint x="372.438069905726" y="827.2866529596613" as="sourcePoint" />
            <mxPoint x="260" y="850" as="targetPoint" />
          </mxGeometry>
        </mxCell>
        <mxCell id="iH67yDx8k5spiiFpo-aq-115" value="" style="endArrow=classic;html=1;rounded=0;fontSize=10;exitX=0.083;exitY=0.258;exitDx=0;exitDy=0;exitPerimeter=0;dashed=1;" parent="1" source="iH67yDx8k5spiiFpo-aq-94" target="iH67yDx8k5spiiFpo-aq-98" edge="1">
          <mxGeometry width="50" height="50" relative="1" as="geometry">
            <mxPoint x="250" y="970" as="sourcePoint" />
            <mxPoint x="300" y="920" as="targetPoint" />
          </mxGeometry>
        </mxCell>
        <mxCell id="iH67yDx8k5spiiFpo-aq-116" value="" style="endArrow=block;html=1;rounded=0;fontSize=10;endFill=0;" parent="1" source="iH67yDx8k5spiiFpo-aq-109" target="iH67yDx8k5spiiFpo-aq-102" edge="1">
          <mxGeometry width="50" height="50" relative="1" as="geometry">
            <mxPoint x="70" y="980" as="sourcePoint" />
            <mxPoint x="120" y="930" as="targetPoint" />
          </mxGeometry>
        </mxCell>
        <mxCell id="iH67yDx8k5spiiFpo-aq-117" value="" style="endArrow=block;html=1;rounded=0;fontSize=10;endFill=0;" parent="1" source="iH67yDx8k5spiiFpo-aq-101" edge="1">
          <mxGeometry width="50" height="50" relative="1" as="geometry">
            <mxPoint x="70" y="980" as="sourcePoint" />
            <mxPoint x="20" y="840" as="targetPoint" />
          </mxGeometry>
        </mxCell>
        <mxCell id="iH67yDx8k5spiiFpo-aq-118" value="extend" style="text;html=1;align=center;verticalAlign=middle;resizable=0;points=[];autosize=1;strokeColor=none;fillColor=none;fontSize=10;rotation=-15;" parent="1" vertex="1">
          <mxGeometry x="285" y="805" width="50" height="30" as="geometry" />
        </mxCell>
        <mxCell id="iH67yDx8k5spiiFpo-aq-119" value="extend" style="text;html=1;align=center;verticalAlign=middle;resizable=0;points=[];autosize=1;strokeColor=none;fillColor=none;fontSize=10;rotation=40;" parent="1" vertex="1">
          <mxGeometry x="290" y="922" width="50" height="30" as="geometry" />
        </mxCell>
        <mxCell id="iH67yDx8k5spiiFpo-aq-120" value="&lt;div&gt;Загрузить&lt;/div&gt;&lt;div&gt;картинку&lt;/div&gt;" style="ellipse;whiteSpace=wrap;html=1;strokeColor=#006600;" parent="1" vertex="1">
          <mxGeometry x="968" y="1348" width="120" height="80" as="geometry" />
        </mxCell>
        <mxCell id="iH67yDx8k5spiiFpo-aq-121" value="extend" style="text;html=1;align=center;verticalAlign=middle;resizable=0;points=[];autosize=1;strokeColor=none;fillColor=none;fontSize=10;" parent="1" vertex="1">
          <mxGeometry x="900" y="1362" width="50" height="30" as="geometry" />
        </mxCell>
        <mxCell id="iH67yDx8k5spiiFpo-aq-122" value="" style="endArrow=classic;html=1;rounded=0;dashed=1;strokeColor=#006600;" parent="1" source="iH67yDx8k5spiiFpo-aq-120" target="iH67yDx8k5spiiFpo-aq-81" edge="1">
          <mxGeometry width="50" height="50" relative="1" as="geometry">
            <mxPoint x="960" y="1388" as="sourcePoint" />
            <mxPoint x="870" y="1388" as="targetPoint" />
          </mxGeometry>
        </mxCell>
        <mxCell id="iH67yDx8k5spiiFpo-aq-126" value="Просмотреть транзакцию" style="ellipse;whiteSpace=wrap;html=1;" parent="1" vertex="1">
          <mxGeometry x="5259" y="827" width="120" height="80" as="geometry" />
        </mxCell>
        <mxCell id="iH67yDx8k5spiiFpo-aq-127" value="&lt;div&gt;Создать &lt;br&gt;&lt;/div&gt;&lt;div&gt;транзакцию&lt;/div&gt;" style="ellipse;whiteSpace=wrap;html=1;" parent="1" vertex="1">
          <mxGeometry x="5259" y="725" width="120" height="80" as="geometry" />
        </mxCell>
        <mxCell id="iH67yDx8k5spiiFpo-aq-133" value="" style="endArrow=none;html=1;rounded=0;fontSize=10;entryX=0;entryY=0.5;entryDx=0;entryDy=0;exitX=1;exitY=0.3333333333333333;exitDx=0;exitDy=0;exitPerimeter=0;" parent="1" source="iH67yDx8k5spiiFpo-aq-161" target="iH67yDx8k5spiiFpo-aq-127" edge="1">
          <mxGeometry width="50" height="50" relative="1" as="geometry">
            <mxPoint x="5169" y="768.4285714285716" as="sourcePoint" />
            <mxPoint x="5239" y="789" as="targetPoint" />
          </mxGeometry>
        </mxCell>
        <mxCell id="iH67yDx8k5spiiFpo-aq-134" value="" style="endArrow=none;html=1;rounded=0;fontSize=10;entryX=0;entryY=0.4;entryDx=0;entryDy=0;entryPerimeter=0;" parent="1" source="iH67yDx8k5spiiFpo-aq-161" target="iH67yDx8k5spiiFpo-aq-126" edge="1">
          <mxGeometry width="50" height="50" relative="1" as="geometry">
            <mxPoint x="5219" y="839" as="sourcePoint" />
            <mxPoint x="5249" y="879" as="targetPoint" />
          </mxGeometry>
        </mxCell>
        <mxCell id="iH67yDx8k5spiiFpo-aq-136" value="&lt;div&gt;Удалить &lt;br&gt;&lt;/div&gt;&lt;div&gt;транзакцию&lt;/div&gt;" style="ellipse;whiteSpace=wrap;html=1;" parent="1" vertex="1">
          <mxGeometry x="5477" y="958" width="120" height="80" as="geometry" />
        </mxCell>
        <mxCell id="iH67yDx8k5spiiFpo-aq-137" value="extend" style="text;html=1;align=center;verticalAlign=middle;resizable=0;points=[];autosize=1;strokeColor=none;fillColor=none;fontSize=10;" parent="1" vertex="1">
          <mxGeometry x="5396" y="830" width="50" height="30" as="geometry" />
        </mxCell>
        <mxCell id="iH67yDx8k5spiiFpo-aq-138" value="" style="endArrow=classic;html=1;rounded=0;dashed=1;" parent="1" source="iH67yDx8k5spiiFpo-aq-136" target="iH67yDx8k5spiiFpo-aq-126" edge="1">
          <mxGeometry width="50" height="50" relative="1" as="geometry">
            <mxPoint x="5469" y="867" as="sourcePoint" />
            <mxPoint x="5379" y="867" as="targetPoint" />
          </mxGeometry>
        </mxCell>
        <mxCell id="iH67yDx8k5spiiFpo-aq-139" value="Просмотреть личный кабинет" style="ellipse;whiteSpace=wrap;html=1;" parent="1" vertex="1">
          <mxGeometry x="750" y="460" width="120" height="80" as="geometry" />
        </mxCell>
        <mxCell id="iH67yDx8k5spiiFpo-aq-141" value="include" style="text;html=1;align=center;verticalAlign=middle;resizable=0;points=[];autosize=1;strokeColor=none;fillColor=none;fontSize=10;flipV=1;flipH=1;rotation=-35;" parent="1" vertex="1">
          <mxGeometry x="5610" y="725" width="60" height="30" as="geometry" />
        </mxCell>
        <mxCell id="iH67yDx8k5spiiFpo-aq-145" value="include" style="text;html=1;align=center;verticalAlign=middle;resizable=0;points=[];autosize=1;strokeColor=none;fillColor=none;fontSize=10;" parent="1" vertex="1">
          <mxGeometry x="5409" y="730" width="60" height="30" as="geometry" />
        </mxCell>
        <mxCell id="iH67yDx8k5spiiFpo-aq-146" value="extend" style="text;html=1;align=center;verticalAlign=middle;resizable=0;points=[];autosize=1;strokeColor=none;fillColor=none;fontSize=10;" parent="1" vertex="1">
          <mxGeometry x="5401" y="922" width="50" height="30" as="geometry" />
        </mxCell>
        <mxCell id="iH67yDx8k5spiiFpo-aq-147" value="&lt;div&gt;Сохранить&lt;/div&gt;&lt;div&gt;транзакцию&lt;br&gt;&lt;/div&gt;" style="ellipse;whiteSpace=wrap;html=1;" parent="1" vertex="1">
          <mxGeometry x="5477" y="579" width="120" height="80" as="geometry" />
        </mxCell>
        <mxCell id="iH67yDx8k5spiiFpo-aq-148" value="" style="endArrow=classic;html=1;rounded=0;dashed=1;fontSize=10;" parent="1" source="iH67yDx8k5spiiFpo-aq-127" target="iH67yDx8k5spiiFpo-aq-147" edge="1">
          <mxGeometry width="50" height="50" relative="1" as="geometry">
            <mxPoint x="5886.504283543591" y="556.6299228048542" as="sourcePoint" />
            <mxPoint x="5782.76" y="518.1999999999998" as="targetPoint" />
          </mxGeometry>
        </mxCell>
        <mxCell id="iH67yDx8k5spiiFpo-aq-149" value="include" style="text;html=1;align=center;verticalAlign=middle;resizable=0;points=[];autosize=1;strokeColor=none;fillColor=none;fontSize=10;flipV=1;flipH=1;" parent="1" vertex="1">
          <mxGeometry x="5398" y="681" width="60" height="30" as="geometry" />
        </mxCell>
        <mxCell id="iH67yDx8k5spiiFpo-aq-150" value="" style="endArrow=classic;html=1;rounded=0;dashed=1;fontSize=10;exitX=0;exitY=0.5;exitDx=0;exitDy=0;" parent="1" source="iH67yDx8k5spiiFpo-aq-157" target="iH67yDx8k5spiiFpo-aq-139" edge="1">
          <mxGeometry width="50" height="50" relative="1" as="geometry">
            <mxPoint x="1460.0000000000005" y="470" as="sourcePoint" />
            <mxPoint x="1274.9694400941185" y="523.9672466392149" as="targetPoint" />
          </mxGeometry>
        </mxCell>
        <mxCell id="iH67yDx8k5spiiFpo-aq-151" value="extend" style="text;html=1;align=center;verticalAlign=middle;resizable=0;points=[];autosize=1;strokeColor=none;fillColor=none;fontSize=10;" parent="1" vertex="1">
          <mxGeometry x="892" y="476" width="50" height="30" as="geometry" />
        </mxCell>
        <mxCell id="iH67yDx8k5spiiFpo-aq-152" value="&lt;div&gt;Просмотреть&lt;/div&gt;&lt;div&gt;категорию&lt;br&gt;&lt;/div&gt;" style="ellipse;whiteSpace=wrap;html=1;" parent="1" vertex="1">
          <mxGeometry x="1180" y="460" width="120" height="80" as="geometry" />
        </mxCell>
        <mxCell id="iH67yDx8k5spiiFpo-aq-153" value="" style="endArrow=classic;html=1;rounded=0;dashed=1;fontSize=10;" parent="1" source="iH67yDx8k5spiiFpo-aq-152" target="iH67yDx8k5spiiFpo-aq-157" edge="1">
          <mxGeometry width="50" height="50" relative="1" as="geometry">
            <mxPoint x="1130" y="500" as="sourcePoint" />
            <mxPoint x="1273.7600000000002" y="559.1999999999998" as="targetPoint" />
          </mxGeometry>
        </mxCell>
        <mxCell id="iH67yDx8k5spiiFpo-aq-155" value="extend" style="text;html=1;align=center;verticalAlign=middle;resizable=0;points=[];autosize=1;strokeColor=none;fillColor=none;fontSize=10;" parent="1" vertex="1">
          <mxGeometry x="1310" y="470" width="50" height="30" as="geometry" />
        </mxCell>
        <mxCell id="iH67yDx8k5spiiFpo-aq-156" value="extend" style="text;html=1;align=center;verticalAlign=middle;resizable=0;points=[];autosize=1;strokeColor=none;fillColor=none;fontSize=10;" parent="1" vertex="1">
          <mxGeometry x="1111" y="475" width="50" height="30" as="geometry" />
        </mxCell>
        <mxCell id="iH67yDx8k5spiiFpo-aq-157" value="Просмотреть список категорий" style="ellipse;whiteSpace=wrap;html=1;" parent="1" vertex="1">
          <mxGeometry x="968" y="460" width="120" height="80" as="geometry" />
        </mxCell>
        <mxCell id="iH67yDx8k5spiiFpo-aq-159" value="extend" style="text;html=1;align=center;verticalAlign=middle;resizable=0;points=[];autosize=1;strokeColor=none;fillColor=none;fontSize=10;" parent="1" vertex="1">
          <mxGeometry x="1280" y="400" width="50" height="30" as="geometry" />
        </mxCell>
        <mxCell id="iH67yDx8k5spiiFpo-aq-160" value="&lt;div&gt;Common&lt;/div&gt;&lt;div&gt;User&lt;br&gt;&lt;/div&gt;" style="shape=umlActor;verticalLabelPosition=bottom;verticalAlign=top;html=1;outlineConnect=0;fontSize=10;" parent="1" vertex="1">
          <mxGeometry x="550" y="750" width="30" height="60" as="geometry" />
        </mxCell>
        <mxCell id="iH67yDx8k5spiiFpo-aq-161" value="User" style="shape=umlActor;verticalLabelPosition=bottom;verticalAlign=top;html=1;outlineConnect=0;fontSize=10;" parent="1" vertex="1">
          <mxGeometry x="5139" y="784" width="30" height="60" as="geometry" />
        </mxCell>
        <mxCell id="iH67yDx8k5spiiFpo-aq-162" value="Admin" style="shape=umlActor;verticalLabelPosition=bottom;verticalAlign=top;html=1;outlineConnect=0;fontSize=10;" parent="1" vertex="1">
          <mxGeometry x="550" y="890" width="30" height="60" as="geometry" />
        </mxCell>
        <mxCell id="iH67yDx8k5spiiFpo-aq-163" value="" style="endArrow=block;html=1;rounded=0;fontSize=10;endFill=0;" parent="1" target="iH67yDx8k5spiiFpo-aq-161" edge="1">
          <mxGeometry width="50" height="50" relative="1" as="geometry">
            <mxPoint x="5089" y="866.8125000000005" as="sourcePoint" />
            <mxPoint x="5239" y="889" as="targetPoint" />
          </mxGeometry>
        </mxCell>
        <mxCell id="iH67yDx8k5spiiFpo-aq-164" value="" style="endArrow=block;html=1;rounded=0;fontSize=10;endFill=0;" parent="1" edge="1">
          <mxGeometry width="50" height="50" relative="1" as="geometry">
            <mxPoint x="5089" y="752.8461538461538" as="sourcePoint" />
            <mxPoint x="5139" y="798.9999999999995" as="targetPoint" />
          </mxGeometry>
        </mxCell>
        <mxCell id="iH67yDx8k5spiiFpo-aq-167" value="Просмотреть страницу транзакций" style="ellipse;whiteSpace=wrap;html=1;" parent="1" vertex="1">
          <mxGeometry x="5259" y="959" width="120" height="80" as="geometry" />
        </mxCell>
        <mxCell id="iH67yDx8k5spiiFpo-aq-168" value="" style="endArrow=none;html=1;rounded=0;fontSize=10;" parent="1" source="iH67yDx8k5spiiFpo-aq-167" target="iH67yDx8k5spiiFpo-aq-161" edge="1">
          <mxGeometry width="50" height="50" relative="1" as="geometry">
            <mxPoint x="5039" y="919" as="sourcePoint" />
            <mxPoint x="5089" y="869" as="targetPoint" />
          </mxGeometry>
        </mxCell>
        <mxCell id="iH67yDx8k5spiiFpo-aq-173" value="" style="endArrow=classic;html=1;rounded=0;dashed=1;" parent="1" target="iH67yDx8k5spiiFpo-aq-167" edge="1">
          <mxGeometry width="50" height="50" relative="1" as="geometry">
            <mxPoint x="5319" y="909" as="sourcePoint" />
            <mxPoint x="5378.314671110177" y="899.7846265255885" as="targetPoint" />
          </mxGeometry>
        </mxCell>
        <mxCell id="iH67yDx8k5spiiFpo-aq-174" value="extend" style="text;html=1;align=center;verticalAlign=middle;resizable=0;points=[];autosize=1;strokeColor=none;fillColor=none;fontSize=10;" parent="1" vertex="1">
          <mxGeometry x="5271" y="916" width="50" height="30" as="geometry" />
        </mxCell>
        <mxCell id="iH67yDx8k5spiiFpo-aq-175" value="" style="endArrow=classic;html=1;rounded=0;dashed=1;fontSize=10;exitX=0;exitY=0.5;exitDx=0;exitDy=0;" parent="1" source="iH67yDx8k5spiiFpo-aq-5" target="iH67yDx8k5spiiFpo-aq-139" edge="1">
          <mxGeometry width="50" height="50" relative="1" as="geometry">
            <mxPoint x="978" y="510" as="sourcePoint" />
            <mxPoint x="880" y="510" as="targetPoint" />
          </mxGeometry>
        </mxCell>
        <mxCell id="iH67yDx8k5spiiFpo-aq-176" value="extend" style="text;html=1;align=center;verticalAlign=middle;resizable=0;points=[];autosize=1;strokeColor=none;fillColor=none;fontSize=10;" parent="1" vertex="1">
          <mxGeometry x="870.5" y="400" width="50" height="30" as="geometry" />
        </mxCell>
        <mxCell id="iH67yDx8k5spiiFpo-aq-177" value="Добавить иконку для категории" style="ellipse;whiteSpace=wrap;html=1;" parent="1" vertex="1">
          <mxGeometry x="1540" y="350" width="120" height="80" as="geometry" />
        </mxCell>
        <mxCell id="iH67yDx8k5spiiFpo-aq-178" value="extend" style="text;html=1;align=center;verticalAlign=middle;resizable=0;points=[];autosize=1;strokeColor=none;fillColor=none;fontSize=10;" parent="1" vertex="1">
          <mxGeometry x="1490" y="360" width="50" height="30" as="geometry" />
        </mxCell>
        <mxCell id="iH67yDx8k5spiiFpo-aq-179" value="" style="endArrow=classic;html=1;rounded=0;dashed=1;fontSize=10;" parent="1" source="iH67yDx8k5spiiFpo-aq-177" target="iH67yDx8k5spiiFpo-aq-11" edge="1">
          <mxGeometry width="50" height="50" relative="1" as="geometry">
            <mxPoint x="1580" y="400" as="sourcePoint" />
            <mxPoint x="1285.3627676735377" y="477.6857467810771" as="targetPoint" />
          </mxGeometry>
        </mxCell>
        <mxCell id="iH67yDx8k5spiiFpo-aq-186" value="&lt;div&gt;User&lt;/div&gt;" style="shape=umlActor;verticalLabelPosition=bottom;verticalAlign=top;html=1;outlineConnect=0;fontSize=10;strokeColor=#006600;" parent="1" vertex="1">
          <mxGeometry x="540" y="1155" width="30" height="60" as="geometry" />
        </mxCell>
        <mxCell id="iH67yDx8k5spiiFpo-aq-188" value="" style="endArrow=classic;html=1;rounded=0;fontSize=10;strokeColor=#006600;" parent="1" source="iH67yDx8k5spiiFpo-aq-87" edge="1">
          <mxGeometry width="50" height="50" relative="1" as="geometry">
            <mxPoint x="645" y="1210" as="sourcePoint" />
            <mxPoint x="630" y="1250" as="targetPoint" />
          </mxGeometry>
        </mxCell>
        <mxCell id="iH67yDx8k5spiiFpo-aq-191" value="Зарегистр-ся в приложении" style="ellipse;whiteSpace=wrap;html=1;flipH=1;" parent="1" vertex="1">
          <mxGeometry x="5235" y="-366" width="120" height="80" as="geometry" />
        </mxCell>
        <mxCell id="iH67yDx8k5spiiFpo-aq-192" value="Выслать проверочный код" style="ellipse;whiteSpace=wrap;html=1;flipH=1;" parent="1" vertex="1">
          <mxGeometry x="5665" y="-285" width="120" height="80" as="geometry" />
        </mxCell>
        <mxCell id="iH67yDx8k5spiiFpo-aq-193" value="Выслать пароль на почту" style="ellipse;whiteSpace=wrap;html=1;flipH=1;" parent="1" vertex="1">
          <mxGeometry x="5665" y="-545" width="120" height="80" as="geometry" />
        </mxCell>
        <mxCell id="iH67yDx8k5spiiFpo-aq-194" value="" style="endArrow=classic;html=1;rounded=0;dashed=1;fontSize=10;exitX=0.049;exitY=0.707;exitDx=0;exitDy=0;exitPerimeter=0;" parent="1" source="iH67yDx8k5spiiFpo-aq-191" target="iH67yDx8k5spiiFpo-aq-30" edge="1">
          <mxGeometry width="50" height="50" relative="1" as="geometry">
            <mxPoint x="5463" y="-175" as="sourcePoint" />
            <mxPoint x="5355" y="-225" as="targetPoint" />
          </mxGeometry>
        </mxCell>
        <mxCell id="iH67yDx8k5spiiFpo-aq-195" value="include" style="text;html=1;align=center;verticalAlign=middle;resizable=0;points=[];autosize=1;strokeColor=none;fillColor=none;fontSize=10;rotation=20;" parent="1" vertex="1">
          <mxGeometry x="5380" y="-315" width="60" height="30" as="geometry" />
        </mxCell>
        <mxCell id="iH67yDx8k5spiiFpo-aq-196" value="" style="endArrow=classic;html=1;rounded=0;dashed=1;fontSize=10;exitX=1;exitY=0.5;exitDx=0;exitDy=0;entryX=0;entryY=0.5;entryDx=0;entryDy=0;" parent="1" source="iH67yDx8k5spiiFpo-aq-30" target="iH67yDx8k5spiiFpo-aq-192" edge="1">
          <mxGeometry width="50" height="50" relative="1" as="geometry">
            <mxPoint x="5463" y="-205" as="sourcePoint" />
            <mxPoint x="5346.564821465439" y="-123.84722683795508" as="targetPoint" />
          </mxGeometry>
        </mxCell>
        <mxCell id="iH67yDx8k5spiiFpo-aq-197" value="include" style="text;html=1;align=center;verticalAlign=middle;resizable=0;points=[];autosize=1;strokeColor=none;fillColor=none;fontSize=10;flipV=1;flipH=1;" parent="1" vertex="1">
          <mxGeometry x="5584" y="-275" width="60" height="30" as="geometry" />
        </mxCell>
        <mxCell id="iH67yDx8k5spiiFpo-aq-203" value="" style="endArrow=classic;html=1;rounded=0;dashed=1;fontSize=10;exitX=1;exitY=0;exitDx=0;exitDy=0;" parent="1" source="iH67yDx8k5spiiFpo-aq-191" target="iH67yDx8k5spiiFpo-aq-1" edge="1">
          <mxGeometry width="50" height="50" relative="1" as="geometry">
            <mxPoint x="5463" y="-215" as="sourcePoint" />
            <mxPoint x="5365" y="-215" as="targetPoint" />
          </mxGeometry>
        </mxCell>
        <mxCell id="iH67yDx8k5spiiFpo-aq-205" value="include" style="text;html=1;align=center;verticalAlign=middle;resizable=0;points=[];autosize=1;strokeColor=none;fillColor=none;fontSize=10;rotation=45;" parent="1" vertex="1">
          <mxGeometry x="5335" y="-465" width="60" height="30" as="geometry" />
        </mxCell>
        <mxCell id="iH67yDx8k5spiiFpo-aq-206" value="" style="endArrow=classic;html=1;rounded=0;dashed=1;fontSize=10;" parent="1" source="iH67yDx8k5spiiFpo-aq-1" target="iH67yDx8k5spiiFpo-aq-193" edge="1">
          <mxGeometry width="50" height="50" relative="1" as="geometry">
            <mxPoint x="5583" y="-425" as="sourcePoint" />
            <mxPoint x="5675" y="-425" as="targetPoint" />
          </mxGeometry>
        </mxCell>
        <mxCell id="iH67yDx8k5spiiFpo-aq-207" value="include" style="text;html=1;align=center;verticalAlign=middle;resizable=0;points=[];autosize=1;strokeColor=none;fillColor=none;fontSize=10;flipV=1;flipH=1;" parent="1" vertex="1">
          <mxGeometry x="5584" y="-535" width="60" height="30" as="geometry" />
        </mxCell>
        <mxCell id="iH67yDx8k5spiiFpo-aq-208" value="Выбрать аккаунт" style="ellipse;whiteSpace=wrap;html=1;flipH=1;" parent="1" vertex="1">
          <mxGeometry x="5505" y="-420" width="120" height="80" as="geometry" />
        </mxCell>
        <mxCell id="iH67yDx8k5spiiFpo-aq-209" value="&lt;div&gt;Добавить аккаунт&lt;/div&gt;&lt;div&gt;в список пользователей&lt;br&gt;&lt;/div&gt;" style="ellipse;whiteSpace=wrap;html=1;flipH=1;" parent="1" vertex="1">
          <mxGeometry x="5815" y="-366" width="120" height="80" as="geometry" />
        </mxCell>
        <mxCell id="iH67yDx8k5spiiFpo-aq-211" value="" style="endArrow=classic;html=1;rounded=0;fontSize=10;dashed=1;exitX=1;exitY=0.5;exitDx=0;exitDy=0;entryX=0;entryY=0.5;entryDx=0;entryDy=0;" parent="1" source="iH67yDx8k5spiiFpo-aq-191" target="iH67yDx8k5spiiFpo-aq-209" edge="1">
          <mxGeometry width="50" height="50" relative="1" as="geometry">
            <mxPoint x="5585" y="-255" as="sourcePoint" />
            <mxPoint x="5635" y="-305" as="targetPoint" />
          </mxGeometry>
        </mxCell>
        <mxCell id="iH67yDx8k5spiiFpo-aq-214" value="include" style="text;html=1;align=center;verticalAlign=middle;resizable=0;points=[];autosize=1;strokeColor=none;fillColor=none;fontSize=10;flipV=1;flipH=1;rotation=-15;" parent="1" vertex="1">
          <mxGeometry x="5361" y="-375" width="60" height="30" as="geometry" />
        </mxCell>
        <mxCell id="iH67yDx8k5spiiFpo-aq-216" value="invoke" style="text;html=1;align=center;verticalAlign=middle;resizable=0;points=[];autosize=1;strokeColor=none;fillColor=none;fontSize=10;flipV=1;flipH=1;" parent="1" vertex="1">
          <mxGeometry x="5590" y="-355" width="50" height="30" as="geometry" />
        </mxCell>
        <mxCell id="iH67yDx8k5spiiFpo-aq-244" value="" style="endArrow=classic;html=1;rounded=0;dashed=1;fontSize=10;exitX=1;exitY=0.5;exitDx=0;exitDy=0;entryX=0.983;entryY=0.375;entryDx=0;entryDy=0;entryPerimeter=0;" parent="1" source="iH67yDx8k5spiiFpo-aq-29" target="iH67yDx8k5spiiFpo-aq-1" edge="1">
          <mxGeometry width="50" height="50" relative="1" as="geometry">
            <mxPoint x="5525" y="-385" as="sourcePoint" />
            <mxPoint x="5575" y="-435" as="targetPoint" />
          </mxGeometry>
        </mxCell>
        <mxCell id="iH67yDx8k5spiiFpo-aq-245" value="" style="endArrow=classic;html=1;rounded=0;dashed=1;fontSize=10;exitX=0.321;exitY=0.994;exitDx=0;exitDy=0;exitPerimeter=0;" parent="1" source="iH67yDx8k5spiiFpo-aq-29" target="iH67yDx8k5spiiFpo-aq-208" edge="1">
          <mxGeometry width="50" height="50" relative="1" as="geometry">
            <mxPoint x="5525" y="-385" as="sourcePoint" />
            <mxPoint x="5575" y="-435" as="targetPoint" />
          </mxGeometry>
        </mxCell>
        <mxCell id="iH67yDx8k5spiiFpo-aq-246" value="" style="endArrow=classic;html=1;rounded=0;dashed=1;fontSize=10;exitX=0.5;exitY=1;exitDx=0;exitDy=0;" parent="1" source="iH67yDx8k5spiiFpo-aq-29" target="iH67yDx8k5spiiFpo-aq-30" edge="1">
          <mxGeometry width="50" height="50" relative="1" as="geometry">
            <mxPoint x="5525" y="-385" as="sourcePoint" />
            <mxPoint x="5575" y="-435" as="targetPoint" />
          </mxGeometry>
        </mxCell>
        <mxCell id="iH67yDx8k5spiiFpo-aq-247" value="include" style="text;html=1;align=center;verticalAlign=middle;resizable=0;points=[];autosize=1;strokeColor=none;fillColor=none;fontSize=10;rotation=30;" parent="1" vertex="1">
          <mxGeometry x="5377" y="-565" width="60" height="30" as="geometry" />
        </mxCell>
        <mxCell id="iH67yDx8k5spiiFpo-aq-248" value="include" style="text;html=1;align=center;verticalAlign=middle;resizable=0;points=[];autosize=1;strokeColor=none;fillColor=none;fontSize=10;rotation=30;" parent="1" vertex="1">
          <mxGeometry x="5350.5" y="-505" width="60" height="30" as="geometry" />
        </mxCell>
        <mxCell id="iH67yDx8k5spiiFpo-aq-249" value="include" style="text;html=1;align=center;verticalAlign=middle;resizable=0;points=[];autosize=1;strokeColor=none;fillColor=none;fontSize=10;rotation=-40;" parent="1" vertex="1">
          <mxGeometry x="5326" y="-400" width="60" height="30" as="geometry" />
        </mxCell>
        <mxCell id="iH67yDx8k5spiiFpo-aq-250" value="&lt;div&gt;Восстановить&lt;/div&gt;&lt;div&gt;пароль&lt;br&gt;&lt;/div&gt;" style="ellipse;whiteSpace=wrap;html=1;flipH=1;" parent="1" vertex="1">
          <mxGeometry x="5453" y="-685" width="120" height="80" as="geometry" />
        </mxCell>
        <mxCell id="iH67yDx8k5spiiFpo-aq-251" value="" style="endArrow=classic;html=1;rounded=0;dashed=1;fontSize=10;exitX=-0.001;exitY=0.672;exitDx=0;exitDy=0;exitPerimeter=0;" parent="1" source="iH67yDx8k5spiiFpo-aq-250" edge="1">
          <mxGeometry width="50" height="50" relative="1" as="geometry">
            <mxPoint x="5805" y="-385" as="sourcePoint" />
            <mxPoint x="5695" y="-545" as="targetPoint" />
          </mxGeometry>
        </mxCell>
        <mxCell id="iH67yDx8k5spiiFpo-aq-252" value="" style="endArrow=classic;html=1;rounded=0;dashed=1;fontSize=10;" parent="1" source="iH67yDx8k5spiiFpo-aq-250" target="iH67yDx8k5spiiFpo-aq-1" edge="1">
          <mxGeometry width="50" height="50" relative="1" as="geometry">
            <mxPoint x="5805" y="-385" as="sourcePoint" />
            <mxPoint x="5855" y="-435" as="targetPoint" />
          </mxGeometry>
        </mxCell>
        <mxCell id="iH67yDx8k5spiiFpo-aq-253" value="include" style="text;html=1;align=center;verticalAlign=middle;resizable=0;points=[];autosize=1;strokeColor=none;fillColor=none;fontSize=10;flipV=1;flipH=1;" parent="1" vertex="1">
          <mxGeometry x="5505" y="-595" width="60" height="30" as="geometry" />
        </mxCell>
        <mxCell id="iH67yDx8k5spiiFpo-aq-254" value="include" style="text;html=1;align=center;verticalAlign=middle;resizable=0;points=[];autosize=1;strokeColor=none;fillColor=none;fontSize=10;flipV=1;flipH=1;rotation=30;" parent="1" vertex="1">
          <mxGeometry x="5615" y="-615" width="60" height="30" as="geometry" />
        </mxCell>
        <mxCell id="iH67yDx8k5spiiFpo-aq-257" value="" style="endArrow=classic;html=1;rounded=0;dashed=1;fontSize=10;" parent="1" source="iH67yDx8k5spiiFpo-aq-31" target="iH67yDx8k5spiiFpo-aq-1" edge="1">
          <mxGeometry width="50" height="50" relative="1" as="geometry">
            <mxPoint x="5365" y="-555" as="sourcePoint" />
            <mxPoint x="5465.04" y="-505" as="targetPoint" />
          </mxGeometry>
        </mxCell>
        <mxCell id="iH67yDx8k5spiiFpo-aq-258" value="include" style="text;html=1;align=center;verticalAlign=middle;resizable=0;points=[];autosize=1;strokeColor=none;fillColor=none;fontSize=10;flipV=1;flipH=1;rotation=45;" parent="1" vertex="1">
          <mxGeometry x="5335" y="-741" width="60" height="30" as="geometry" />
        </mxCell>
        <mxCell id="iH67yDx8k5spiiFpo-aq-259" value="" style="endArrow=classic;html=1;rounded=0;dashed=1;fontSize=10;" parent="1" source="iH67yDx8k5spiiFpo-aq-191" target="iH67yDx8k5spiiFpo-aq-208" edge="1">
          <mxGeometry width="50" height="50" relative="1" as="geometry">
            <mxPoint x="5347.426406871193" y="-344.28427124746213" as="sourcePoint" />
            <mxPoint x="5486.193666659245" y="-463.41031232958767" as="targetPoint" />
          </mxGeometry>
        </mxCell>
        <mxCell id="iH67yDx8k5spiiFpo-aq-260" value="" style="endArrow=classic;html=1;rounded=0;dashed=1;fontSize=10;" parent="1" source="iH67yDx8k5spiiFpo-aq-31" target="iH67yDx8k5spiiFpo-aq-30" edge="1">
          <mxGeometry width="50" height="50" relative="1" as="geometry">
            <mxPoint x="5475" y="-405" as="sourcePoint" />
            <mxPoint x="5525" y="-455" as="targetPoint" />
          </mxGeometry>
        </mxCell>
        <mxCell id="iH67yDx8k5spiiFpo-aq-261" value="include" style="text;html=1;align=center;verticalAlign=middle;resizable=0;points=[];autosize=1;strokeColor=none;fillColor=none;fontSize=10;flipV=1;flipH=1;rotation=60;" parent="1" vertex="1">
          <mxGeometry x="5434" y="-411" width="60" height="30" as="geometry" />
        </mxCell>
        <mxCell id="iH67yDx8k5spiiFpo-aq-262" value="Просмотреть раздел админ-ия" style="ellipse;whiteSpace=wrap;html=1;" parent="1" vertex="1">
          <mxGeometry x="5235" y="-955" width="120" height="80" as="geometry" />
        </mxCell>
        <mxCell id="iH67yDx8k5spiiFpo-aq-263" value="" style="endArrow=classic;html=1;rounded=0;dashed=1;fontSize=10;exitX=0;exitY=0.5;exitDx=0;exitDy=0;" parent="1" source="iH67yDx8k5spiiFpo-aq-250" target="iH67yDx8k5spiiFpo-aq-3" edge="1">
          <mxGeometry width="50" height="50" relative="1" as="geometry">
            <mxPoint x="5515" y="-684" as="sourcePoint" />
            <mxPoint x="5435" y="-685" as="targetPoint" />
          </mxGeometry>
        </mxCell>
        <mxCell id="iH67yDx8k5spiiFpo-aq-264" value="&lt;div&gt;extend&lt;/div&gt;" style="text;html=1;align=center;verticalAlign=middle;resizable=0;points=[];autosize=1;strokeColor=none;fillColor=none;fontSize=10;flipV=1;flipH=1;rotation=0;" parent="1" vertex="1">
          <mxGeometry x="5399" y="-675" width="50" height="30" as="geometry" />
        </mxCell>
        <mxCell id="iH67yDx8k5spiiFpo-aq-265" value="" style="endArrow=classic;html=1;rounded=0;dashed=1;fontSize=10;exitX=0;exitY=0.5;exitDx=0;exitDy=0;entryX=1;entryY=0.5;entryDx=0;entryDy=0;" parent="1" source="iH67yDx8k5spiiFpo-aq-8" target="iH67yDx8k5spiiFpo-aq-262" edge="1">
          <mxGeometry width="50" height="50" relative="1" as="geometry">
            <mxPoint x="5495" y="-745" as="sourcePoint" />
            <mxPoint x="5545" y="-795" as="targetPoint" />
          </mxGeometry>
        </mxCell>
        <mxCell id="iH67yDx8k5spiiFpo-aq-266" value="extend" style="text;html=1;align=center;verticalAlign=middle;resizable=0;points=[];autosize=1;strokeColor=none;fillColor=none;fontSize=10;flipV=1;flipH=1;" parent="1" vertex="1">
          <mxGeometry x="5377" y="-940" width="50" height="30" as="geometry" />
        </mxCell>
        <mxCell id="iH67yDx8k5spiiFpo-aq-271" value="" style="endArrow=none;html=1;rounded=0;fontSize=10;exitX=1;exitY=1;exitDx=0;exitDy=0;exitPerimeter=0;" parent="1" source="iH67yDx8k5spiiFpo-aq-295" target="iH67yDx8k5spiiFpo-aq-31" edge="1">
          <mxGeometry width="50" height="50" relative="1" as="geometry">
            <mxPoint x="5145" y="-789.1248936483341" as="sourcePoint" />
            <mxPoint x="5115" y="-595.0000000000005" as="targetPoint" />
          </mxGeometry>
        </mxCell>
        <mxCell id="iH67yDx8k5spiiFpo-aq-273" value="" style="endArrow=classic;html=1;rounded=0;dashed=1;fontSize=10;exitX=0.5;exitY=1;exitDx=0;exitDy=0;" parent="1" source="iH67yDx8k5spiiFpo-aq-262" edge="1">
          <mxGeometry width="50" height="50" relative="1" as="geometry">
            <mxPoint x="5455" y="-675" as="sourcePoint" />
            <mxPoint x="5295" y="-825" as="targetPoint" />
          </mxGeometry>
        </mxCell>
        <mxCell id="iH67yDx8k5spiiFpo-aq-274" value="extend" style="text;html=1;align=center;verticalAlign=middle;resizable=0;points=[];autosize=1;strokeColor=none;fillColor=none;fontSize=10;flipV=1;flipH=1;" parent="1" vertex="1">
          <mxGeometry x="5297" y="-865" width="50" height="30" as="geometry" />
        </mxCell>
        <mxCell id="iH67yDx8k5spiiFpo-aq-285" value="" style="endArrow=classic;html=1;rounded=0;fontSize=10;strokeColor=#006600;" parent="1" source="iH67yDx8k5spiiFpo-aq-186" target="iH67yDx8k5spiiFpo-aq-86" edge="1">
          <mxGeometry width="50" height="50" relative="1" as="geometry">
            <mxPoint x="610" y="1240" as="sourcePoint" />
            <mxPoint x="620" y="1180" as="targetPoint" />
          </mxGeometry>
        </mxCell>
        <mxCell id="iH67yDx8k5spiiFpo-aq-286" value="" style="endArrow=none;html=1;rounded=0;fontSize=10;strokeColor=#006600;" parent="1" source="iH67yDx8k5spiiFpo-aq-86" target="iH67yDx8k5spiiFpo-aq-83" edge="1">
          <mxGeometry width="50" height="50" relative="1" as="geometry">
            <mxPoint x="655" y="1374.666666666667" as="sourcePoint" />
            <mxPoint x="788.6707684216722" y="1229.1140521630687" as="targetPoint" />
          </mxGeometry>
        </mxCell>
        <mxCell id="iH67yDx8k5spiiFpo-aq-287" value="&lt;div&gt;Common&lt;/div&gt;&lt;div&gt;User&lt;br&gt;&lt;/div&gt;" style="shape=umlActor;verticalLabelPosition=bottom;verticalAlign=top;html=1;outlineConnect=0;fontSize=10;strokeColor=#006600;" parent="1" vertex="1">
          <mxGeometry x="5" y="1155" width="30" height="60" as="geometry" />
        </mxCell>
        <mxCell id="iH67yDx8k5spiiFpo-aq-288" value="Admin" style="shape=umlActor;verticalLabelPosition=bottom;verticalAlign=top;html=1;outlineConnect=0;fontSize=10;strokeColor=#006600;" parent="1" vertex="1">
          <mxGeometry x="5" y="1351" width="30" height="60" as="geometry" />
        </mxCell>
        <mxCell id="iH67yDx8k5spiiFpo-aq-289" value="&lt;div&gt;User&lt;/div&gt;" style="shape=umlActor;verticalLabelPosition=bottom;verticalAlign=top;html=1;outlineConnect=0;fontSize=10;strokeColor=#006600;" parent="1" vertex="1">
          <mxGeometry x="-70" y="1155" width="30" height="60" as="geometry" />
        </mxCell>
        <mxCell id="iH67yDx8k5spiiFpo-aq-290" value="" style="endArrow=block;html=1;rounded=0;fontSize=10;endFill=0;strokeColor=#006600;" parent="1" source="iH67yDx8k5spiiFpo-aq-288" edge="1">
          <mxGeometry width="50" height="50" relative="1" as="geometry">
            <mxPoint x="35" y="1210" as="sourcePoint" />
            <mxPoint x="20" y="1250" as="targetPoint" />
          </mxGeometry>
        </mxCell>
        <mxCell id="iH67yDx8k5spiiFpo-aq-291" value="" style="endArrow=block;html=1;rounded=0;fontSize=10;endFill=0;strokeColor=#006600;" parent="1" source="iH67yDx8k5spiiFpo-aq-289" target="iH67yDx8k5spiiFpo-aq-287" edge="1">
          <mxGeometry width="50" height="50" relative="1" as="geometry">
            <mxPoint y="1240" as="sourcePoint" />
            <mxPoint x="10" y="1180" as="targetPoint" />
          </mxGeometry>
        </mxCell>
        <mxCell id="iH67yDx8k5spiiFpo-aq-292" value="" style="endArrow=none;html=1;rounded=0;fontSize=10;strokeColor=#006600;" parent="1" source="iH67yDx8k5spiiFpo-aq-287" target="iH67yDx8k5spiiFpo-aq-26" edge="1">
          <mxGeometry width="50" height="50" relative="1" as="geometry">
            <mxPoint x="45" y="1374.666666666667" as="sourcePoint" />
            <mxPoint x="140.00000000000819" y="1185" as="targetPoint" />
          </mxGeometry>
        </mxCell>
        <mxCell id="iH67yDx8k5spiiFpo-aq-293" value="&lt;div&gt;Common&lt;/div&gt;&lt;div&gt;User&lt;br&gt;&lt;/div&gt;" style="shape=umlActor;verticalLabelPosition=bottom;verticalAlign=top;html=1;outlineConnect=0;fontSize=10;" parent="1" vertex="1">
          <mxGeometry x="5070" y="-475" width="30" height="60" as="geometry" />
        </mxCell>
        <mxCell id="iH67yDx8k5spiiFpo-aq-294" value="User" style="shape=umlActor;verticalLabelPosition=bottom;verticalAlign=top;html=1;outlineConnect=0;fontSize=10;" parent="1" vertex="1">
          <mxGeometry x="4990" y="-474" width="30" height="60" as="geometry" />
        </mxCell>
        <mxCell id="iH67yDx8k5spiiFpo-aq-295" value="Admin" style="shape=umlActor;verticalLabelPosition=bottom;verticalAlign=top;html=1;outlineConnect=0;fontSize=10;" parent="1" vertex="1">
          <mxGeometry x="5070" y="-900" width="30" height="60" as="geometry" />
        </mxCell>
        <mxCell id="iH67yDx8k5spiiFpo-aq-296" value="" style="endArrow=classic;html=1;rounded=0;fontSize=10;" parent="1" source="iH67yDx8k5spiiFpo-aq-294" target="iH67yDx8k5spiiFpo-aq-293" edge="1">
          <mxGeometry width="50" height="50" relative="1" as="geometry">
            <mxPoint x="4975" y="-605" as="sourcePoint" />
            <mxPoint x="5085" y="-795" as="targetPoint" />
          </mxGeometry>
        </mxCell>
        <mxCell id="iH67yDx8k5spiiFpo-aq-297" value="" style="endArrow=classic;html=1;rounded=0;fontSize=10;" parent="1" edge="1">
          <mxGeometry width="50" height="50" relative="1" as="geometry">
            <mxPoint x="5085" y="-815" as="sourcePoint" />
            <mxPoint x="5085" y="-485" as="targetPoint" />
          </mxGeometry>
        </mxCell>
        <mxCell id="iH67yDx8k5spiiFpo-aq-298" value="" style="endArrow=none;html=1;rounded=0;fontSize=10;entryX=0;entryY=0.5;entryDx=0;entryDy=0;" parent="1" target="iH67yDx8k5spiiFpo-aq-191" edge="1">
          <mxGeometry width="50" height="50" relative="1" as="geometry">
            <mxPoint x="5105" y="-425" as="sourcePoint" />
            <mxPoint x="5155" y="-515" as="targetPoint" />
          </mxGeometry>
        </mxCell>
        <mxCell id="iH67yDx8k5spiiFpo-aq-299" value="" style="endArrow=none;html=1;rounded=0;fontSize=10;" parent="1" target="iH67yDx8k5spiiFpo-aq-29" edge="1">
          <mxGeometry width="50" height="50" relative="1" as="geometry">
            <mxPoint x="5105" y="-445" as="sourcePoint" />
            <mxPoint x="5175" y="-465" as="targetPoint" />
          </mxGeometry>
        </mxCell>
        <mxCell id="iH67yDx8k5spiiFpo-aq-300" value="" style="endArrow=none;html=1;rounded=0;fontSize=10;" parent="1" target="iH67yDx8k5spiiFpo-aq-3" edge="1">
          <mxGeometry width="50" height="50" relative="1" as="geometry">
            <mxPoint x="5105" y="-465" as="sourcePoint" />
            <mxPoint x="5285" y="-565" as="targetPoint" />
          </mxGeometry>
        </mxCell>
        <mxCell id="iH67yDx8k5spiiFpo-aq-303" value="" style="endArrow=none;html=1;rounded=0;fontSize=10;exitX=0.5;exitY=0;exitDx=0;exitDy=0;exitPerimeter=0;entryX=0.05;entryY=0.269;entryDx=0;entryDy=0;entryPerimeter=0;" parent="1" source="iH67yDx8k5spiiFpo-aq-293" edge="1">
          <mxGeometry width="50" height="50" relative="1" as="geometry">
            <mxPoint x="5305" y="-515" as="sourcePoint" />
            <mxPoint x="5199" y="-755.1800000000003" as="targetPoint" />
          </mxGeometry>
        </mxCell>
        <mxCell id="iH67yDx8k5spiiFpo-aq-304" value="" style="endArrow=none;html=1;rounded=0;fontSize=10;" parent="1" target="iH67yDx8k5spiiFpo-aq-250" edge="1">
          <mxGeometry width="50" height="50" relative="1" as="geometry">
            <mxPoint x="5195" y="-755" as="sourcePoint" />
            <mxPoint x="5355" y="-565" as="targetPoint" />
          </mxGeometry>
        </mxCell>
        <mxCell id="iH67yDx8k5spiiFpo-aq-305" value="" style="endArrow=none;html=1;rounded=0;fontSize=10;" parent="1" target="iH67yDx8k5spiiFpo-aq-1" edge="1">
          <mxGeometry width="50" height="50" relative="1" as="geometry">
            <mxPoint x="5115" y="-435" as="sourcePoint" />
            <mxPoint x="5315" y="-455" as="targetPoint" />
          </mxGeometry>
        </mxCell>
        <mxCell id="iH67yDx8k5spiiFpo-aq-306" value="" style="endArrow=none;html=1;rounded=0;fontSize=10;" parent="1" source="iH67yDx8k5spiiFpo-aq-295" target="iH67yDx8k5spiiFpo-aq-262" edge="1">
          <mxGeometry width="50" height="50" relative="1" as="geometry">
            <mxPoint x="5235" y="-705" as="sourcePoint" />
            <mxPoint x="5285" y="-755" as="targetPoint" />
          </mxGeometry>
        </mxCell>
        <mxCell id="iH67yDx8k5spiiFpo-aq-361" value="&lt;div&gt;Common&lt;/div&gt;&lt;div&gt;User&lt;br&gt;&lt;/div&gt;" style="shape=umlActor;verticalLabelPosition=bottom;verticalAlign=top;html=1;outlineConnect=0;fontSize=10;" parent="1" vertex="1">
          <mxGeometry x="550" y="340" width="30" height="60" as="geometry" />
        </mxCell>
        <mxCell id="iH67yDx8k5spiiFpo-aq-362" value="User" style="shape=umlActor;verticalLabelPosition=bottom;verticalAlign=top;html=1;outlineConnect=0;fontSize=10;" parent="1" vertex="1">
          <mxGeometry x="630" y="415" width="30" height="60" as="geometry" />
        </mxCell>
        <mxCell id="iH67yDx8k5spiiFpo-aq-363" value="Admin" style="shape=umlActor;verticalLabelPosition=bottom;verticalAlign=top;html=1;outlineConnect=0;fontSize=10;" parent="1" vertex="1">
          <mxGeometry x="550" y="480" width="30" height="60" as="geometry" />
        </mxCell>
        <mxCell id="iH67yDx8k5spiiFpo-aq-364" value="" style="endArrow=none;html=1;rounded=0;fontSize=10;" parent="1" source="iH67yDx8k5spiiFpo-aq-363" target="iH67yDx8k5spiiFpo-aq-362" edge="1">
          <mxGeometry width="50" height="50" relative="1" as="geometry">
            <mxPoint x="680" y="570" as="sourcePoint" />
            <mxPoint x="730" y="520" as="targetPoint" />
          </mxGeometry>
        </mxCell>
        <mxCell id="iH67yDx8k5spiiFpo-aq-365" value="" style="endArrow=none;html=1;rounded=0;fontSize=10;" parent="1" source="iH67yDx8k5spiiFpo-aq-361" edge="1">
          <mxGeometry width="50" height="50" relative="1" as="geometry">
            <mxPoint x="680" y="570" as="sourcePoint" />
            <mxPoint x="630" y="429.99999999999955" as="targetPoint" />
          </mxGeometry>
        </mxCell>
        <mxCell id="iH67yDx8k5spiiFpo-aq-366" value="" style="endArrow=none;html=1;rounded=0;fontSize=10;" parent="1" source="iH67yDx8k5spiiFpo-aq-362" target="iH67yDx8k5spiiFpo-aq-139" edge="1">
          <mxGeometry width="50" height="50" relative="1" as="geometry">
            <mxPoint x="710" y="710" as="sourcePoint" />
            <mxPoint x="760" y="660" as="targetPoint" />
          </mxGeometry>
        </mxCell>
        <mxCell id="9JSYzaQLczRlGTcXWpsd-1" value="" style="whiteSpace=wrap;html=1;fontSize=10;fillColor=none;" parent="1" vertex="1">
          <mxGeometry x="1790" y="-970" width="800" height="780" as="geometry" />
        </mxCell>
        <mxCell id="9JSYzaQLczRlGTcXWpsd-2" value="Ввести имейл и пароль" style="ellipse;whiteSpace=wrap;html=1;flipH=1;strokeColor=#009900;" parent="1" vertex="1">
          <mxGeometry x="2084" y="-550" width="120" height="80" as="geometry" />
        </mxCell>
        <mxCell id="9JSYzaQLczRlGTcXWpsd-3" value="Просмотреть личный кабинет" style="ellipse;whiteSpace=wrap;html=1;" parent="1" vertex="1">
          <mxGeometry x="1806" y="-710" width="120" height="80" as="geometry" />
        </mxCell>
        <mxCell id="9JSYzaQLczRlGTcXWpsd-4" value="Забанить пользователя" style="ellipse;whiteSpace=wrap;html=1;" parent="1" vertex="1">
          <mxGeometry x="2304" y="-960" width="120" height="80" as="geometry" />
        </mxCell>
        <mxCell id="9JSYzaQLczRlGTcXWpsd-5" value="Просмотреть список пользователей" style="ellipse;whiteSpace=wrap;html=1;" parent="1" vertex="1">
          <mxGeometry x="2084" y="-960" width="120" height="80" as="geometry" />
        </mxCell>
        <mxCell id="9JSYzaQLczRlGTcXWpsd-6" value="&lt;div&gt;Авторизоваться&lt;/div&gt;&lt;div&gt;в приложении&lt;br&gt;&lt;/div&gt;" style="ellipse;whiteSpace=wrap;html=1;flipH=1;" parent="1" vertex="1">
          <mxGeometry x="1866" y="-610" width="120" height="80" as="geometry" />
        </mxCell>
        <mxCell id="9JSYzaQLczRlGTcXWpsd-7" value="Ввести номер телефона" style="ellipse;whiteSpace=wrap;html=1;flipH=1;" parent="1" vertex="1">
          <mxGeometry x="2084" y="-290" width="120" height="80" as="geometry" />
        </mxCell>
        <mxCell id="9JSYzaQLczRlGTcXWpsd-8" value="Войти как администратор" style="ellipse;whiteSpace=wrap;html=1;" parent="1" vertex="1">
          <mxGeometry x="1871" y="-856" width="120" height="80" as="geometry" />
        </mxCell>
        <mxCell id="9JSYzaQLczRlGTcXWpsd-9" value="" style="endArrow=classic;html=1;rounded=0;dashed=1;" parent="1" source="9JSYzaQLczRlGTcXWpsd-4" target="9JSYzaQLczRlGTcXWpsd-5" edge="1">
          <mxGeometry width="50" height="50" relative="1" as="geometry">
            <mxPoint x="2304" y="-920" as="sourcePoint" />
            <mxPoint x="2206" y="-900" as="targetPoint" />
          </mxGeometry>
        </mxCell>
        <mxCell id="9JSYzaQLczRlGTcXWpsd-10" value="extend" style="text;html=1;align=center;verticalAlign=middle;resizable=0;points=[];autosize=1;strokeColor=none;fillColor=none;fontSize=10;flipV=1;flipH=1;" parent="1" vertex="1">
          <mxGeometry x="2230" y="-945" width="50" height="30" as="geometry" />
        </mxCell>
        <mxCell id="9JSYzaQLczRlGTcXWpsd-11" value="Зарегистр-ся в приложении" style="ellipse;whiteSpace=wrap;html=1;flipH=1;" parent="1" vertex="1">
          <mxGeometry x="1866" y="-371" width="120" height="80" as="geometry" />
        </mxCell>
        <mxCell id="9JSYzaQLczRlGTcXWpsd-14" value="" style="endArrow=none;html=1;rounded=0;fontSize=10;exitX=0.049;exitY=0.707;exitDx=0;exitDy=0;exitPerimeter=0;endFill=0;startArrow=block;startFill=0;strokeColor=#009900;strokeWidth=2;" parent="1" source="9JSYzaQLczRlGTcXWpsd-11" target="9JSYzaQLczRlGTcXWpsd-7" edge="1">
          <mxGeometry width="50" height="50" relative="1" as="geometry">
            <mxPoint x="2094" y="-180" as="sourcePoint" />
            <mxPoint x="1986" y="-230" as="targetPoint" />
          </mxGeometry>
        </mxCell>
        <mxCell id="9JSYzaQLczRlGTcXWpsd-18" value="" style="endArrow=block;html=1;rounded=0;fontSize=10;endFill=0;strokeColor=#009900;strokeWidth=2;" parent="1" source="9JSYzaQLczRlGTcXWpsd-2" target="9JSYzaQLczRlGTcXWpsd-11" edge="1">
          <mxGeometry width="50" height="50" relative="1" as="geometry">
            <mxPoint x="2094" y="-220" as="sourcePoint" />
            <mxPoint x="1996" y="-220" as="targetPoint" />
          </mxGeometry>
        </mxCell>
        <mxCell id="9JSYzaQLczRlGTcXWpsd-19" value="include" style="text;html=1;align=center;verticalAlign=middle;resizable=0;points=[];autosize=1;strokeColor=none;fillColor=none;fontSize=10;rotation=45;" parent="1" vertex="1">
          <mxGeometry x="1966" y="-470" width="60" height="30" as="geometry" />
        </mxCell>
        <mxCell id="9JSYzaQLczRlGTcXWpsd-22" value="Выбрать аккаунт" style="ellipse;whiteSpace=wrap;html=1;flipH=1;" parent="1" vertex="1">
          <mxGeometry x="2136" y="-425" width="120" height="80" as="geometry" />
        </mxCell>
        <mxCell id="9JSYzaQLczRlGTcXWpsd-27" value="" style="endArrow=none;html=1;rounded=0;fontSize=10;exitX=1;exitY=0.5;exitDx=0;exitDy=0;entryX=0.983;entryY=0.375;entryDx=0;entryDy=0;entryPerimeter=0;strokeColor=#009900;strokeWidth=2;endFill=0;startArrow=block;startFill=0;" parent="1" source="9JSYzaQLczRlGTcXWpsd-6" target="9JSYzaQLczRlGTcXWpsd-2" edge="1">
          <mxGeometry width="50" height="50" relative="1" as="geometry">
            <mxPoint x="2156" y="-390" as="sourcePoint" />
            <mxPoint x="2206" y="-440" as="targetPoint" />
          </mxGeometry>
        </mxCell>
        <mxCell id="9JSYzaQLczRlGTcXWpsd-28" value="" style="endArrow=none;html=1;rounded=0;fontSize=10;exitX=0.321;exitY=0.994;exitDx=0;exitDy=0;exitPerimeter=0;strokeColor=#009900;strokeWidth=2;endFill=0;startArrow=block;startFill=0;" parent="1" source="9JSYzaQLczRlGTcXWpsd-6" target="9JSYzaQLczRlGTcXWpsd-22" edge="1">
          <mxGeometry width="50" height="50" relative="1" as="geometry">
            <mxPoint x="2156" y="-390" as="sourcePoint" />
            <mxPoint x="2206" y="-440" as="targetPoint" />
          </mxGeometry>
        </mxCell>
        <mxCell id="9JSYzaQLczRlGTcXWpsd-29" value="" style="endArrow=none;html=1;rounded=0;fontSize=10;exitX=0.5;exitY=1;exitDx=0;exitDy=0;strokeColor=#009900;strokeWidth=2;startArrow=block;startFill=0;endFill=0;" parent="1" source="9JSYzaQLczRlGTcXWpsd-6" target="9JSYzaQLczRlGTcXWpsd-7" edge="1">
          <mxGeometry width="50" height="50" relative="1" as="geometry">
            <mxPoint x="2156" y="-390" as="sourcePoint" />
            <mxPoint x="2206" y="-440" as="targetPoint" />
          </mxGeometry>
        </mxCell>
        <mxCell id="9JSYzaQLczRlGTcXWpsd-30" value="include" style="text;html=1;align=center;verticalAlign=middle;resizable=0;points=[];autosize=1;strokeColor=none;fillColor=none;fontSize=10;rotation=30;" parent="1" vertex="1">
          <mxGeometry x="2008" y="-570" width="60" height="30" as="geometry" />
        </mxCell>
        <mxCell id="9JSYzaQLczRlGTcXWpsd-31" value="include" style="text;html=1;align=center;verticalAlign=middle;resizable=0;points=[];autosize=1;strokeColor=none;fillColor=none;fontSize=10;rotation=30;" parent="1" vertex="1">
          <mxGeometry x="1981.5" y="-510" width="60" height="30" as="geometry" />
        </mxCell>
        <mxCell id="9JSYzaQLczRlGTcXWpsd-33" value="Сменить пароль" style="ellipse;whiteSpace=wrap;html=1;flipH=1;strokeColor=#009900;" parent="1" vertex="1">
          <mxGeometry x="2084" y="-690" width="120" height="80" as="geometry" />
        </mxCell>
        <mxCell id="9JSYzaQLczRlGTcXWpsd-35" value="" style="endArrow=classic;html=1;rounded=0;dashed=1;fontSize=10;strokeColor=#009900;" parent="1" source="9JSYzaQLczRlGTcXWpsd-97" target="9JSYzaQLczRlGTcXWpsd-2" edge="1">
          <mxGeometry width="50" height="50" relative="1" as="geometry">
            <mxPoint x="2436" y="-390" as="sourcePoint" />
            <mxPoint x="2486" y="-440" as="targetPoint" />
          </mxGeometry>
        </mxCell>
        <mxCell id="9JSYzaQLczRlGTcXWpsd-36" value="include" style="text;html=1;align=center;verticalAlign=middle;resizable=0;points=[];autosize=1;strokeColor=none;fillColor=none;fontSize=10;flipV=1;flipH=1;" parent="1" vertex="1">
          <mxGeometry x="2230" y="-680" width="60" height="30" as="geometry" />
        </mxCell>
        <mxCell id="9JSYzaQLczRlGTcXWpsd-38" value="" style="endArrow=classic;html=1;rounded=0;dashed=1;fontSize=10;" parent="1" source="9JSYzaQLczRlGTcXWpsd-8" target="9JSYzaQLczRlGTcXWpsd-2" edge="1">
          <mxGeometry width="50" height="50" relative="1" as="geometry">
            <mxPoint x="1996" y="-560" as="sourcePoint" />
            <mxPoint x="2096.04" y="-510" as="targetPoint" />
          </mxGeometry>
        </mxCell>
        <mxCell id="9JSYzaQLczRlGTcXWpsd-39" value="include" style="text;html=1;align=center;verticalAlign=middle;resizable=0;points=[];autosize=1;strokeColor=none;fillColor=none;fontSize=10;flipV=1;flipH=1;rotation=45;" parent="1" vertex="1">
          <mxGeometry x="1966" y="-746" width="60" height="30" as="geometry" />
        </mxCell>
        <mxCell id="9JSYzaQLczRlGTcXWpsd-40" value="" style="endArrow=block;html=1;rounded=0;fontSize=10;entryX=0.001;entryY=0.397;entryDx=0;entryDy=0;entryPerimeter=0;endFill=0;strokeColor=#009900;strokeWidth=2;" parent="1" source="9JSYzaQLczRlGTcXWpsd-22" target="9JSYzaQLczRlGTcXWpsd-11" edge="1">
          <mxGeometry width="50" height="50" relative="1" as="geometry">
            <mxPoint x="1978.4264068711927" y="-349.28427124746213" as="sourcePoint" />
            <mxPoint x="2117.1936666592446" y="-468.41031232958767" as="targetPoint" />
          </mxGeometry>
        </mxCell>
        <mxCell id="9JSYzaQLczRlGTcXWpsd-41" value="" style="endArrow=classic;html=1;rounded=0;dashed=1;fontSize=10;" parent="1" source="9JSYzaQLczRlGTcXWpsd-8" target="9JSYzaQLczRlGTcXWpsd-7" edge="1">
          <mxGeometry width="50" height="50" relative="1" as="geometry">
            <mxPoint x="2106" y="-410" as="sourcePoint" />
            <mxPoint x="2156" y="-460" as="targetPoint" />
          </mxGeometry>
        </mxCell>
        <mxCell id="9JSYzaQLczRlGTcXWpsd-42" value="include" style="text;html=1;align=center;verticalAlign=middle;resizable=0;points=[];autosize=1;strokeColor=none;fillColor=none;fontSize=10;flipV=1;flipH=1;rotation=60;" parent="1" vertex="1">
          <mxGeometry x="2065" y="-416" width="60" height="30" as="geometry" />
        </mxCell>
        <mxCell id="9JSYzaQLczRlGTcXWpsd-43" value="Просмотреть раздел админ-ия" style="ellipse;whiteSpace=wrap;html=1;" parent="1" vertex="1">
          <mxGeometry x="1866" y="-960" width="120" height="80" as="geometry" />
        </mxCell>
        <mxCell id="9JSYzaQLczRlGTcXWpsd-44" value="" style="endArrow=classic;html=1;rounded=0;dashed=1;fontSize=10;exitX=0;exitY=0.5;exitDx=0;exitDy=0;" parent="1" source="9JSYzaQLczRlGTcXWpsd-33" target="9JSYzaQLczRlGTcXWpsd-3" edge="1">
          <mxGeometry width="50" height="50" relative="1" as="geometry">
            <mxPoint x="2146" y="-689" as="sourcePoint" />
            <mxPoint x="2066" y="-690" as="targetPoint" />
          </mxGeometry>
        </mxCell>
        <mxCell id="9JSYzaQLczRlGTcXWpsd-45" value="&lt;div&gt;extend&lt;/div&gt;" style="text;html=1;align=center;verticalAlign=middle;resizable=0;points=[];autosize=1;strokeColor=none;fillColor=none;fontSize=10;flipV=1;flipH=1;rotation=0;" parent="1" vertex="1">
          <mxGeometry x="2030" y="-680" width="50" height="30" as="geometry" />
        </mxCell>
        <mxCell id="9JSYzaQLczRlGTcXWpsd-46" value="" style="endArrow=classic;html=1;rounded=0;dashed=1;fontSize=10;exitX=0;exitY=0.5;exitDx=0;exitDy=0;entryX=1;entryY=0.5;entryDx=0;entryDy=0;" parent="1" source="9JSYzaQLczRlGTcXWpsd-5" target="9JSYzaQLczRlGTcXWpsd-43" edge="1">
          <mxGeometry width="50" height="50" relative="1" as="geometry">
            <mxPoint x="2126" y="-750" as="sourcePoint" />
            <mxPoint x="2176" y="-800" as="targetPoint" />
          </mxGeometry>
        </mxCell>
        <mxCell id="9JSYzaQLczRlGTcXWpsd-47" value="extend" style="text;html=1;align=center;verticalAlign=middle;resizable=0;points=[];autosize=1;strokeColor=none;fillColor=none;fontSize=10;flipV=1;flipH=1;" parent="1" vertex="1">
          <mxGeometry x="2008" y="-945" width="50" height="30" as="geometry" />
        </mxCell>
        <mxCell id="9JSYzaQLczRlGTcXWpsd-48" value="" style="endArrow=none;html=1;rounded=0;fontSize=10;exitX=1;exitY=1;exitDx=0;exitDy=0;exitPerimeter=0;" parent="1" source="9JSYzaQLczRlGTcXWpsd-53" target="9JSYzaQLczRlGTcXWpsd-8" edge="1">
          <mxGeometry width="50" height="50" relative="1" as="geometry">
            <mxPoint x="1776" y="-794.1248936483341" as="sourcePoint" />
            <mxPoint x="1746" y="-600.0000000000005" as="targetPoint" />
          </mxGeometry>
        </mxCell>
        <mxCell id="9JSYzaQLczRlGTcXWpsd-49" value="" style="endArrow=classic;html=1;rounded=0;dashed=1;fontSize=10;exitX=0.5;exitY=1;exitDx=0;exitDy=0;" parent="1" source="9JSYzaQLczRlGTcXWpsd-43" edge="1">
          <mxGeometry width="50" height="50" relative="1" as="geometry">
            <mxPoint x="2086" y="-680" as="sourcePoint" />
            <mxPoint x="1925.9999999999995" y="-830" as="targetPoint" />
          </mxGeometry>
        </mxCell>
        <mxCell id="9JSYzaQLczRlGTcXWpsd-50" value="extend" style="text;html=1;align=center;verticalAlign=middle;resizable=0;points=[];autosize=1;strokeColor=none;fillColor=none;fontSize=10;flipV=1;flipH=1;" parent="1" vertex="1">
          <mxGeometry x="1928" y="-870" width="50" height="30" as="geometry" />
        </mxCell>
        <mxCell id="9JSYzaQLczRlGTcXWpsd-51" value="&lt;div&gt;Common&lt;/div&gt;&lt;div&gt;User&lt;br&gt;&lt;/div&gt;" style="shape=umlActor;verticalLabelPosition=bottom;verticalAlign=top;html=1;outlineConnect=0;fontSize=10;" parent="1" vertex="1">
          <mxGeometry x="1701" y="-480" width="30" height="60" as="geometry" />
        </mxCell>
        <mxCell id="9JSYzaQLczRlGTcXWpsd-52" value="User" style="shape=umlActor;verticalLabelPosition=bottom;verticalAlign=top;html=1;outlineConnect=0;fontSize=10;" parent="1" vertex="1">
          <mxGeometry x="1621" y="-479" width="30" height="60" as="geometry" />
        </mxCell>
        <mxCell id="9JSYzaQLczRlGTcXWpsd-53" value="Admin" style="shape=umlActor;verticalLabelPosition=bottom;verticalAlign=top;html=1;outlineConnect=0;fontSize=10;" parent="1" vertex="1">
          <mxGeometry x="1701" y="-905" width="30" height="60" as="geometry" />
        </mxCell>
        <mxCell id="9JSYzaQLczRlGTcXWpsd-54" value="" style="endArrow=block;html=1;rounded=0;fontSize=10;endFill=0;" parent="1" source="9JSYzaQLczRlGTcXWpsd-52" target="9JSYzaQLczRlGTcXWpsd-51" edge="1">
          <mxGeometry width="50" height="50" relative="1" as="geometry">
            <mxPoint x="1606" y="-610" as="sourcePoint" />
            <mxPoint x="1716" y="-800" as="targetPoint" />
          </mxGeometry>
        </mxCell>
        <mxCell id="9JSYzaQLczRlGTcXWpsd-55" value="" style="endArrow=block;html=1;rounded=0;fontSize=10;endFill=0;" parent="1" edge="1">
          <mxGeometry width="50" height="50" relative="1" as="geometry">
            <mxPoint x="1715.9999999999995" y="-820" as="sourcePoint" />
            <mxPoint x="1715.9999999999995" y="-490" as="targetPoint" />
          </mxGeometry>
        </mxCell>
        <mxCell id="9JSYzaQLczRlGTcXWpsd-56" value="" style="endArrow=none;html=1;rounded=0;fontSize=10;entryX=0;entryY=0.5;entryDx=0;entryDy=0;" parent="1" target="9JSYzaQLczRlGTcXWpsd-11" edge="1">
          <mxGeometry width="50" height="50" relative="1" as="geometry">
            <mxPoint x="1735.9999999999995" y="-430" as="sourcePoint" />
            <mxPoint x="1786" y="-520" as="targetPoint" />
          </mxGeometry>
        </mxCell>
        <mxCell id="9JSYzaQLczRlGTcXWpsd-57" value="" style="endArrow=none;html=1;rounded=0;fontSize=10;" parent="1" target="9JSYzaQLczRlGTcXWpsd-6" edge="1">
          <mxGeometry width="50" height="50" relative="1" as="geometry">
            <mxPoint x="1735.9999999999995" y="-450" as="sourcePoint" />
            <mxPoint x="1806" y="-470" as="targetPoint" />
          </mxGeometry>
        </mxCell>
        <mxCell id="9JSYzaQLczRlGTcXWpsd-58" value="" style="endArrow=none;html=1;rounded=0;fontSize=10;" parent="1" target="9JSYzaQLczRlGTcXWpsd-3" edge="1">
          <mxGeometry width="50" height="50" relative="1" as="geometry">
            <mxPoint x="1735.9999999999995" y="-470" as="sourcePoint" />
            <mxPoint x="1916" y="-570" as="targetPoint" />
          </mxGeometry>
        </mxCell>
        <mxCell id="9JSYzaQLczRlGTcXWpsd-59" value="" style="endArrow=none;html=1;rounded=0;fontSize=10;exitX=0.5;exitY=0;exitDx=0;exitDy=0;exitPerimeter=0;entryX=0.05;entryY=0.269;entryDx=0;entryDy=0;entryPerimeter=0;" parent="1" source="9JSYzaQLczRlGTcXWpsd-51" target="9JSYzaQLczRlGTcXWpsd-1" edge="1">
          <mxGeometry width="50" height="50" relative="1" as="geometry">
            <mxPoint x="1936" y="-520" as="sourcePoint" />
            <mxPoint x="1986" y="-570" as="targetPoint" />
          </mxGeometry>
        </mxCell>
        <mxCell id="9JSYzaQLczRlGTcXWpsd-60" value="" style="endArrow=none;html=1;rounded=0;fontSize=10;entryX=0;entryY=0.5;entryDx=0;entryDy=0;" parent="1" target="9JSYzaQLczRlGTcXWpsd-97" edge="1">
          <mxGeometry width="50" height="50" relative="1" as="geometry">
            <mxPoint x="1825.9999999999995" y="-760" as="sourcePoint" />
            <mxPoint x="1986" y="-570" as="targetPoint" />
          </mxGeometry>
        </mxCell>
        <mxCell id="9JSYzaQLczRlGTcXWpsd-62" value="" style="endArrow=none;html=1;rounded=0;fontSize=10;" parent="1" source="9JSYzaQLczRlGTcXWpsd-53" target="9JSYzaQLczRlGTcXWpsd-43" edge="1">
          <mxGeometry width="50" height="50" relative="1" as="geometry">
            <mxPoint x="1866" y="-710" as="sourcePoint" />
            <mxPoint x="1916" y="-760" as="targetPoint" />
          </mxGeometry>
        </mxCell>
        <mxCell id="9JSYzaQLczRlGTcXWpsd-63" value="&lt;b&gt;&lt;font style=&quot;font-size: 28px;&quot;&gt;VERSION 1.0&lt;br&gt;&lt;/font&gt;&lt;/b&gt;" style="text;html=1;align=center;verticalAlign=middle;resizable=0;points=[];autosize=1;strokeColor=none;fillColor=none;" parent="1" vertex="1">
          <mxGeometry x="5159" y="-1020" width="200" height="50" as="geometry" />
        </mxCell>
        <mxCell id="9JSYzaQLczRlGTcXWpsd-64" value="&lt;b&gt;&lt;font style=&quot;font-size: 28px;&quot;&gt;VERSION 2.0&lt;br&gt;&lt;/font&gt;&lt;/b&gt;" style="text;html=1;align=center;verticalAlign=middle;resizable=0;points=[];autosize=1;strokeColor=none;fillColor=none;" parent="1" vertex="1">
          <mxGeometry x="1780" y="-1025" width="200" height="50" as="geometry" />
        </mxCell>
        <mxCell id="9JSYzaQLczRlGTcXWpsd-65" value="" style="whiteSpace=wrap;html=1;strokeColor=#000000;fontSize=28;fontColor=#000000;" parent="1" vertex="1">
          <mxGeometry x="4420" y="1850" width="460" height="740" as="geometry" />
        </mxCell>
        <mxCell id="9JSYzaQLczRlGTcXWpsd-66" value="" style="rounded=1;whiteSpace=wrap;html=1;strokeColor=#000000;fontSize=28;fontColor=#000000;" parent="1" vertex="1">
          <mxGeometry x="4505" y="2050" width="290" height="60" as="geometry" />
        </mxCell>
        <mxCell id="9JSYzaQLczRlGTcXWpsd-67" value="&lt;div&gt;Для входа укажите &lt;br&gt;&lt;/div&gt;" style="text;html=1;align=center;verticalAlign=middle;resizable=0;points=[];autosize=1;strokeColor=none;fillColor=none;fontSize=28;fontColor=#000000;" parent="1" vertex="1">
          <mxGeometry x="4525" y="1990" width="270" height="50" as="geometry" />
        </mxCell>
        <mxCell id="9JSYzaQLczRlGTcXWpsd-68" value="Электронную почту" style="text;html=1;align=center;verticalAlign=middle;resizable=0;points=[];autosize=1;strokeColor=none;fillColor=none;fontSize=28;fontColor=#696969;" parent="1" vertex="1">
          <mxGeometry x="4505" y="2050" width="280" height="50" as="geometry" />
        </mxCell>
        <mxCell id="9JSYzaQLczRlGTcXWpsd-69" value="Или номер телефона" style="text;html=1;align=center;verticalAlign=middle;resizable=0;points=[];autosize=1;strokeColor=none;fillColor=none;fontSize=28;fontColor=#000000;" parent="1" vertex="1">
          <mxGeometry x="4490" y="2180" width="300" height="50" as="geometry" />
        </mxCell>
        <mxCell id="9JSYzaQLczRlGTcXWpsd-70" value="Или войдите через соцсети" style="text;html=1;align=center;verticalAlign=middle;resizable=0;points=[];autosize=1;strokeColor=none;fillColor=none;fontSize=28;fontColor=#000000;" parent="1" vertex="1">
          <mxGeometry x="4480" y="2340" width="380" height="50" as="geometry" />
        </mxCell>
        <mxCell id="9JSYzaQLczRlGTcXWpsd-76" value="" style="rounded=1;whiteSpace=wrap;html=1;strokeColor=#000000;fontSize=23;fontColor=#696969;fillColor=#FFCC99;" parent="1" vertex="1">
          <mxGeometry x="4551" y="2406" width="80" height="80" as="geometry" />
        </mxCell>
        <mxCell id="9JSYzaQLczRlGTcXWpsd-71" value="&lt;b style=&quot;font-size: 55px;&quot;&gt;G&lt;/b&gt;" style="text;html=1;align=center;verticalAlign=middle;resizable=0;points=[];autosize=1;strokeColor=none;fillColor=none;fontSize=55;fontColor=#000000;" parent="1" vertex="1">
          <mxGeometry x="4555" y="2408" width="70" height="80" as="geometry" />
        </mxCell>
        <mxCell id="9JSYzaQLczRlGTcXWpsd-77" value="" style="rounded=1;whiteSpace=wrap;html=1;strokeColor=#000000;fontSize=23;fontColor=#696969;fillColor=#66B2FF;" parent="1" vertex="1">
          <mxGeometry x="4661" y="2406" width="80" height="80" as="geometry" />
        </mxCell>
        <mxCell id="9JSYzaQLczRlGTcXWpsd-72" value="&lt;font size=&quot;1&quot;&gt;&lt;b style=&quot;font-size: 47px;&quot;&gt;VK&lt;/b&gt;&lt;/font&gt;" style="text;html=1;align=center;verticalAlign=middle;resizable=0;points=[];autosize=1;strokeColor=none;fillColor=none;fontSize=55;fontColor=#000000;" parent="1" vertex="1">
          <mxGeometry x="4655" y="2400" width="90" height="80" as="geometry" />
        </mxCell>
        <mxCell id="9JSYzaQLczRlGTcXWpsd-73" value="" style="rounded=1;whiteSpace=wrap;html=1;strokeColor=#000000;fontSize=47;fontColor=#000000;" parent="1" vertex="1">
          <mxGeometry x="4510" y="2240" width="280" height="60" as="geometry" />
        </mxCell>
        <mxCell id="9JSYzaQLczRlGTcXWpsd-74" value="&lt;font&gt;+7(---) --- -- --&lt;br&gt;&lt;/font&gt;" style="text;html=1;align=center;verticalAlign=middle;resizable=0;points=[];autosize=1;strokeColor=none;fillColor=none;fontSize=28;fontColor=#696969;" parent="1" vertex="1">
          <mxGeometry x="4555" y="2240" width="190" height="50" as="geometry" />
        </mxCell>
        <mxCell id="9JSYzaQLczRlGTcXWpsd-78" value="&lt;font style=&quot;font-size: 22px;&quot; color=&quot;#007FFF&quot;&gt;Уже есть аккаунт&lt;br&gt;&lt;/font&gt;" style="text;html=1;align=center;verticalAlign=middle;resizable=0;points=[];autosize=1;strokeColor=none;fillColor=none;fontSize=28;fontColor=#000000;" parent="1" vertex="1">
          <mxGeometry x="4615" y="2100" width="200" height="50" as="geometry" />
        </mxCell>
        <mxCell id="9JSYzaQLczRlGTcXWpsd-80" value="" style="rounded=1;whiteSpace=wrap;html=1;strokeColor=#000000;fontSize=22;fontColor=#007FFF;fillColor=none;" parent="1" vertex="1">
          <mxGeometry x="4540" y="2510" width="220" height="60" as="geometry" />
        </mxCell>
        <mxCell id="9JSYzaQLczRlGTcXWpsd-81" value="&lt;font&gt;Продолжить&lt;/font&gt;" style="text;html=1;align=center;verticalAlign=middle;resizable=0;points=[];autosize=1;strokeColor=none;fillColor=none;fontSize=22;fontColor=#999999;" parent="1" vertex="1">
          <mxGeometry x="4570" y="2520" width="150" height="40" as="geometry" />
        </mxCell>
        <mxCell id="9JSYzaQLczRlGTcXWpsd-82" value="" style="whiteSpace=wrap;html=1;strokeColor=#000000;fontSize=28;fontColor=#000000;" parent="1" vertex="1">
          <mxGeometry x="4940" y="1850" width="460" height="740" as="geometry" />
        </mxCell>
        <mxCell id="9JSYzaQLczRlGTcXWpsd-83" value="" style="rounded=1;whiteSpace=wrap;html=1;strokeColor=#000000;fontSize=28;fontColor=#000000;" parent="1" vertex="1">
          <mxGeometry x="5025" y="2050" width="290" height="60" as="geometry" />
        </mxCell>
        <mxCell id="9JSYzaQLczRlGTcXWpsd-84" value="Укажите пароль" style="text;html=1;align=center;verticalAlign=middle;resizable=0;points=[];autosize=1;strokeColor=none;fillColor=none;fontSize=28;fontColor=#000000;" parent="1" vertex="1">
          <mxGeometry x="5065" y="1990" width="230" height="50" as="geometry" />
        </mxCell>
        <mxCell id="9JSYzaQLczRlGTcXWpsd-85" value="..." style="text;html=1;align=center;verticalAlign=middle;resizable=0;points=[];autosize=1;strokeColor=none;fillColor=none;fontSize=28;fontColor=#696969;" parent="1" vertex="1">
          <mxGeometry x="5140" y="2050" width="50" height="50" as="geometry" />
        </mxCell>
        <mxCell id="9JSYzaQLczRlGTcXWpsd-94" value="&lt;font style=&quot;font-size: 23px;&quot;&gt;Я забыл пароль&lt;br&gt;&lt;/font&gt;" style="text;html=1;align=center;verticalAlign=middle;resizable=0;points=[];autosize=1;strokeColor=none;fillColor=none;fontSize=28;fontColor=#007FFF;" parent="1" vertex="1">
          <mxGeometry x="5135" y="2100" width="200" height="50" as="geometry" />
        </mxCell>
        <mxCell id="9JSYzaQLczRlGTcXWpsd-95" value="" style="rounded=1;whiteSpace=wrap;html=1;strokeColor=#000000;fontSize=22;fontColor=#007FFF;fillColor=none;" parent="1" vertex="1">
          <mxGeometry x="5060" y="2510" width="220" height="60" as="geometry" />
        </mxCell>
        <mxCell id="9JSYzaQLczRlGTcXWpsd-96" value="Назад" style="text;html=1;align=center;verticalAlign=middle;resizable=0;points=[];autosize=1;strokeColor=none;fillColor=none;fontSize=22;fontColor=#000000;" parent="1" vertex="1">
          <mxGeometry x="5120" y="2520" width="90" height="40" as="geometry" />
        </mxCell>
        <mxCell id="9JSYzaQLczRlGTcXWpsd-97" value="&lt;div&gt;Восстановить&lt;/div&gt;&lt;div&gt;пароль&lt;br&gt;&lt;/div&gt;" style="ellipse;whiteSpace=wrap;html=1;flipH=1;strokeColor=#009900;" parent="1" vertex="1">
          <mxGeometry x="2224" y="-790" width="120" height="80" as="geometry" />
        </mxCell>
        <mxCell id="9JSYzaQLczRlGTcXWpsd-98" value="" style="whiteSpace=wrap;html=1;fontSize=10;fillColor=none;" parent="1" vertex="1">
          <mxGeometry x="-1400" y="-710" width="1010" height="270" as="geometry" />
        </mxCell>
        <mxCell id="9JSYzaQLczRlGTcXWpsd-99" value="" style="whiteSpace=wrap;html=1;fontSize=10;fillColor=none;" parent="1" vertex="1">
          <mxGeometry x="1980" y="620" width="650" height="480" as="geometry" />
        </mxCell>
        <mxCell id="9JSYzaQLczRlGTcXWpsd-100" value="Выбрать валюту при внесении данных" style="ellipse;whiteSpace=wrap;html=1;" parent="1" vertex="1">
          <mxGeometry x="2268" y="878" width="120" height="80" as="geometry" />
        </mxCell>
        <mxCell id="9JSYzaQLczRlGTcXWpsd-101" value="Сменить пароль" style="ellipse;whiteSpace=wrap;html=1;" parent="1" vertex="1">
          <mxGeometry x="-1112" y="-670" width="120" height="80" as="geometry" />
        </mxCell>
        <mxCell id="9JSYzaQLczRlGTcXWpsd-102" value="&lt;div&gt;Добавить категорию&lt;/div&gt;" style="ellipse;whiteSpace=wrap;html=1;" parent="1" vertex="1">
          <mxGeometry x="2268" y="776" width="120" height="80" as="geometry" />
        </mxCell>
        <mxCell id="9JSYzaQLczRlGTcXWpsd-103" value="Добавить иконку для категории" style="ellipse;whiteSpace=wrap;html=1;" parent="1" vertex="1">
          <mxGeometry x="2480" y="776" width="120" height="80" as="geometry" />
        </mxCell>
        <mxCell id="9JSYzaQLczRlGTcXWpsd-104" value="&lt;div&gt;Удалить &lt;br&gt;&lt;/div&gt;&lt;div&gt;категорию&lt;/div&gt;" style="ellipse;whiteSpace=wrap;html=1;" parent="1" vertex="1">
          <mxGeometry x="-720" y="-560" width="120" height="80" as="geometry" />
        </mxCell>
        <mxCell id="9JSYzaQLczRlGTcXWpsd-105" value="Редактировать категорию" style="ellipse;whiteSpace=wrap;html=1;" parent="1" vertex="1">
          <mxGeometry x="-720" y="-670" width="120" height="80" as="geometry" />
        </mxCell>
        <mxCell id="9JSYzaQLczRlGTcXWpsd-106" value="" style="endArrow=classic;html=1;rounded=0;dashed=1;" parent="1" source="9JSYzaQLczRlGTcXWpsd-100" target="9JSYzaQLczRlGTcXWpsd-114" edge="1">
          <mxGeometry width="50" height="50" relative="1" as="geometry">
            <mxPoint x="1659" y="410" as="sourcePoint" />
            <mxPoint x="1560" y="410" as="targetPoint" />
          </mxGeometry>
        </mxCell>
        <mxCell id="9JSYzaQLczRlGTcXWpsd-107" value="" style="endArrow=classic;html=1;rounded=0;dashed=1;exitX=0;exitY=0.5;exitDx=0;exitDy=0;entryX=1;entryY=0.5;entryDx=0;entryDy=0;" parent="1" source="9JSYzaQLczRlGTcXWpsd-102" target="9JSYzaQLczRlGTcXWpsd-114" edge="1">
          <mxGeometry width="50" height="50" relative="1" as="geometry">
            <mxPoint x="1670" y="420" as="sourcePoint" />
            <mxPoint x="1546.08" y="436.6399999999999" as="targetPoint" />
          </mxGeometry>
        </mxCell>
        <mxCell id="9JSYzaQLczRlGTcXWpsd-108" value="" style="endArrow=classic;html=1;rounded=0;dashed=1;fontSize=10;exitX=0;exitY=0.5;exitDx=0;exitDy=0;" parent="1" source="9JSYzaQLczRlGTcXWpsd-105" target="9JSYzaQLczRlGTcXWpsd-131" edge="1">
          <mxGeometry width="50" height="50" relative="1" as="geometry">
            <mxPoint x="-1610" y="-880" as="sourcePoint" />
            <mxPoint x="-815.0305599058815" y="-506.03275336078514" as="targetPoint" />
          </mxGeometry>
        </mxCell>
        <mxCell id="9JSYzaQLczRlGTcXWpsd-109" value="" style="endArrow=classic;html=1;rounded=0;dashed=1;fontSize=10;" parent="1" source="9JSYzaQLczRlGTcXWpsd-104" target="9JSYzaQLczRlGTcXWpsd-131" edge="1">
          <mxGeometry width="50" height="50" relative="1" as="geometry">
            <mxPoint x="-1610" y="-880" as="sourcePoint" />
            <mxPoint x="-816.2399999999998" y="-470.8000000000002" as="targetPoint" />
          </mxGeometry>
        </mxCell>
        <mxCell id="9JSYzaQLczRlGTcXWpsd-110" value="" style="endArrow=classic;html=1;rounded=0;dashed=1;fontSize=10;exitX=0.5;exitY=0;exitDx=0;exitDy=0;" parent="1" source="9JSYzaQLczRlGTcXWpsd-102" target="9JSYzaQLczRlGTcXWpsd-111" edge="1">
          <mxGeometry width="50" height="50" relative="1" as="geometry">
            <mxPoint x="1750" y="320" as="sourcePoint" />
            <mxPoint x="1800" y="270" as="targetPoint" />
          </mxGeometry>
        </mxCell>
        <mxCell id="9JSYzaQLczRlGTcXWpsd-111" value="Просмотреть список категорий" style="ellipse;whiteSpace=wrap;html=1;" parent="1" vertex="1">
          <mxGeometry x="2480" y="675" width="120" height="80" as="geometry" />
        </mxCell>
        <mxCell id="9JSYzaQLczRlGTcXWpsd-112" value="" style="endArrow=classic;html=1;rounded=0;dashed=1;fontSize=10;entryX=1;entryY=0.5;entryDx=0;entryDy=0;" parent="1" source="9JSYzaQLczRlGTcXWpsd-103" target="9JSYzaQLczRlGTcXWpsd-102" edge="1">
          <mxGeometry width="50" height="50" relative="1" as="geometry">
            <mxPoint x="2260" y="310" as="sourcePoint" />
            <mxPoint x="1790" y="200" as="targetPoint" />
          </mxGeometry>
        </mxCell>
        <mxCell id="9JSYzaQLczRlGTcXWpsd-113" value="Просмотреть транзакцию" style="ellipse;whiteSpace=wrap;html=1;" parent="1" vertex="1">
          <mxGeometry x="2050" y="878" width="120" height="80" as="geometry" />
        </mxCell>
        <mxCell id="9JSYzaQLczRlGTcXWpsd-114" value="&lt;div&gt;Создать &lt;br&gt;&lt;/div&gt;&lt;div&gt;транзакцию&lt;/div&gt;" style="ellipse;whiteSpace=wrap;html=1;" parent="1" vertex="1">
          <mxGeometry x="2050" y="776" width="120" height="80" as="geometry" />
        </mxCell>
        <mxCell id="9JSYzaQLczRlGTcXWpsd-116" value="" style="endArrow=none;html=1;rounded=0;fontSize=10;entryX=0;entryY=0.5;entryDx=0;entryDy=0;exitX=1;exitY=0.3333333333333333;exitDx=0;exitDy=0;exitPerimeter=0;" parent="1" source="9JSYzaQLczRlGTcXWpsd-138" target="9JSYzaQLczRlGTcXWpsd-114" edge="1">
          <mxGeometry width="50" height="50" relative="1" as="geometry">
            <mxPoint x="1960" y="819.4285714285716" as="sourcePoint" />
            <mxPoint x="2030" y="840" as="targetPoint" />
          </mxGeometry>
        </mxCell>
        <mxCell id="9JSYzaQLczRlGTcXWpsd-117" value="" style="endArrow=none;html=1;rounded=0;fontSize=10;entryX=0;entryY=0.4;entryDx=0;entryDy=0;entryPerimeter=0;" parent="1" source="9JSYzaQLczRlGTcXWpsd-138" target="9JSYzaQLczRlGTcXWpsd-113" edge="1">
          <mxGeometry width="50" height="50" relative="1" as="geometry">
            <mxPoint x="2010" y="890" as="sourcePoint" />
            <mxPoint x="2040" y="930" as="targetPoint" />
          </mxGeometry>
        </mxCell>
        <mxCell id="9JSYzaQLczRlGTcXWpsd-118" value="&lt;div&gt;Удалить &lt;br&gt;&lt;/div&gt;&lt;div&gt;транзакцию&lt;/div&gt;" style="ellipse;whiteSpace=wrap;html=1;" parent="1" vertex="1">
          <mxGeometry x="2268" y="979" width="120" height="80" as="geometry" />
        </mxCell>
        <mxCell id="9JSYzaQLczRlGTcXWpsd-119" value="extend" style="text;html=1;align=center;verticalAlign=middle;resizable=0;points=[];autosize=1;strokeColor=none;fillColor=none;fontSize=10;" parent="1" vertex="1">
          <mxGeometry x="2190" y="870" width="50" height="30" as="geometry" />
        </mxCell>
        <mxCell id="9JSYzaQLczRlGTcXWpsd-120" value="" style="endArrow=classic;html=1;rounded=0;dashed=1;" parent="1" source="9JSYzaQLczRlGTcXWpsd-118" target="9JSYzaQLczRlGTcXWpsd-113" edge="1">
          <mxGeometry width="50" height="50" relative="1" as="geometry">
            <mxPoint x="2260" y="918" as="sourcePoint" />
            <mxPoint x="2170" y="918" as="targetPoint" />
          </mxGeometry>
        </mxCell>
        <mxCell id="9JSYzaQLczRlGTcXWpsd-121" value="Просмотреть личный кабинет" style="ellipse;whiteSpace=wrap;html=1;" parent="1" vertex="1">
          <mxGeometry x="-1330" y="-560" width="120" height="80" as="geometry" />
        </mxCell>
        <mxCell id="9JSYzaQLczRlGTcXWpsd-122" value="include" style="text;html=1;align=center;verticalAlign=middle;resizable=0;points=[];autosize=1;strokeColor=none;fillColor=none;fontSize=10;flipV=1;flipH=1;" parent="1" vertex="1">
          <mxGeometry x="2390" y="722" width="60" height="30" as="geometry" />
        </mxCell>
        <mxCell id="9JSYzaQLczRlGTcXWpsd-123" value="extend" style="text;html=1;align=center;verticalAlign=middle;resizable=0;points=[];autosize=1;strokeColor=none;fillColor=none;fontSize=10;" parent="1" vertex="1">
          <mxGeometry x="2415" y="791" width="50" height="30" as="geometry" />
        </mxCell>
        <mxCell id="9JSYzaQLczRlGTcXWpsd-124" value="extend" style="text;html=1;align=center;verticalAlign=middle;resizable=0;points=[];autosize=1;strokeColor=none;fillColor=none;fontSize=10;" parent="1" vertex="1">
          <mxGeometry x="2205" y="791" width="50" height="30" as="geometry" />
        </mxCell>
        <mxCell id="9JSYzaQLczRlGTcXWpsd-125" value="extend" style="text;html=1;align=center;verticalAlign=middle;resizable=0;points=[];autosize=1;strokeColor=none;fillColor=none;fontSize=10;" parent="1" vertex="1">
          <mxGeometry x="2192" y="973" width="50" height="30" as="geometry" />
        </mxCell>
        <mxCell id="9JSYzaQLczRlGTcXWpsd-126" value="&lt;div&gt;Сохранить&lt;/div&gt;&lt;div&gt;транзакцию&lt;br&gt;&lt;/div&gt;" style="ellipse;whiteSpace=wrap;html=1;" parent="1" vertex="1">
          <mxGeometry x="2268" y="670" width="120" height="80" as="geometry" />
        </mxCell>
        <mxCell id="9JSYzaQLczRlGTcXWpsd-127" value="" style="endArrow=classic;html=1;rounded=0;dashed=1;fontSize=10;" parent="1" source="9JSYzaQLczRlGTcXWpsd-114" target="9JSYzaQLczRlGTcXWpsd-126" edge="1">
          <mxGeometry width="50" height="50" relative="1" as="geometry">
            <mxPoint x="2677.50428354359" y="607.6299228048542" as="sourcePoint" />
            <mxPoint x="2573.76" y="569.1999999999998" as="targetPoint" />
          </mxGeometry>
        </mxCell>
        <mxCell id="9JSYzaQLczRlGTcXWpsd-128" value="include" style="text;html=1;align=center;verticalAlign=middle;resizable=0;points=[];autosize=1;strokeColor=none;fillColor=none;fontSize=10;flipV=1;flipH=1;" parent="1" vertex="1">
          <mxGeometry x="2189" y="732" width="60" height="30" as="geometry" />
        </mxCell>
        <mxCell id="9JSYzaQLczRlGTcXWpsd-129" value="" style="endArrow=classic;html=1;rounded=0;dashed=1;fontSize=10;exitX=0;exitY=0.5;exitDx=0;exitDy=0;" parent="1" source="9JSYzaQLczRlGTcXWpsd-135" target="9JSYzaQLczRlGTcXWpsd-121" edge="1">
          <mxGeometry width="50" height="50" relative="1" as="geometry">
            <mxPoint x="-619.9999999999995" y="-550" as="sourcePoint" />
            <mxPoint x="-805.0305599058815" y="-496.03275336078514" as="targetPoint" />
          </mxGeometry>
        </mxCell>
        <mxCell id="9JSYzaQLczRlGTcXWpsd-130" value="extend" style="text;html=1;align=center;verticalAlign=middle;resizable=0;points=[];autosize=1;strokeColor=none;fillColor=none;fontSize=10;" parent="1" vertex="1">
          <mxGeometry x="-1188" y="-544" width="50" height="30" as="geometry" />
        </mxCell>
        <mxCell id="9JSYzaQLczRlGTcXWpsd-131" value="&lt;div&gt;Просмотреть&lt;/div&gt;&lt;div&gt;категорию&lt;br&gt;&lt;/div&gt;" style="ellipse;whiteSpace=wrap;html=1;" parent="1" vertex="1">
          <mxGeometry x="-900" y="-560" width="120" height="80" as="geometry" />
        </mxCell>
        <mxCell id="9JSYzaQLczRlGTcXWpsd-132" value="" style="endArrow=classic;html=1;rounded=0;dashed=1;fontSize=10;" parent="1" source="9JSYzaQLczRlGTcXWpsd-131" target="9JSYzaQLczRlGTcXWpsd-135" edge="1">
          <mxGeometry width="50" height="50" relative="1" as="geometry">
            <mxPoint x="-950" y="-520" as="sourcePoint" />
            <mxPoint x="-806.2399999999998" y="-460.8000000000002" as="targetPoint" />
          </mxGeometry>
        </mxCell>
        <mxCell id="9JSYzaQLczRlGTcXWpsd-133" value="extend" style="text;html=1;align=center;verticalAlign=middle;resizable=0;points=[];autosize=1;strokeColor=none;fillColor=none;fontSize=10;" parent="1" vertex="1">
          <mxGeometry x="-770" y="-550" width="50" height="30" as="geometry" />
        </mxCell>
        <mxCell id="9JSYzaQLczRlGTcXWpsd-134" value="extend" style="text;html=1;align=center;verticalAlign=middle;resizable=0;points=[];autosize=1;strokeColor=none;fillColor=none;fontSize=10;" parent="1" vertex="1">
          <mxGeometry x="-969" y="-545" width="50" height="30" as="geometry" />
        </mxCell>
        <mxCell id="9JSYzaQLczRlGTcXWpsd-135" value="Просмотреть список категорий" style="ellipse;whiteSpace=wrap;html=1;" parent="1" vertex="1">
          <mxGeometry x="-1112" y="-560" width="120" height="80" as="geometry" />
        </mxCell>
        <mxCell id="9JSYzaQLczRlGTcXWpsd-136" value="extend" style="text;html=1;align=center;verticalAlign=middle;resizable=0;points=[];autosize=1;strokeColor=none;fillColor=none;fontSize=10;" parent="1" vertex="1">
          <mxGeometry x="-800" y="-620" width="50" height="30" as="geometry" />
        </mxCell>
        <mxCell id="9JSYzaQLczRlGTcXWpsd-137" value="&lt;div&gt;Common&lt;/div&gt;&lt;div&gt;User&lt;br&gt;&lt;/div&gt;" style="shape=umlActor;verticalLabelPosition=bottom;verticalAlign=top;html=1;outlineConnect=0;fontSize=10;" parent="1" vertex="1">
          <mxGeometry x="1850" y="760" width="30" height="60" as="geometry" />
        </mxCell>
        <mxCell id="9JSYzaQLczRlGTcXWpsd-138" value="User" style="shape=umlActor;verticalLabelPosition=bottom;verticalAlign=top;html=1;outlineConnect=0;fontSize=10;" parent="1" vertex="1">
          <mxGeometry x="1930" y="835" width="30" height="60" as="geometry" />
        </mxCell>
        <mxCell id="9JSYzaQLczRlGTcXWpsd-139" value="Admin" style="shape=umlActor;verticalLabelPosition=bottom;verticalAlign=top;html=1;outlineConnect=0;fontSize=10;" parent="1" vertex="1">
          <mxGeometry x="1850" y="900" width="30" height="60" as="geometry" />
        </mxCell>
        <mxCell id="9JSYzaQLczRlGTcXWpsd-140" value="" style="endArrow=none;html=1;rounded=0;fontSize=10;" parent="1" source="9JSYzaQLczRlGTcXWpsd-139" target="9JSYzaQLczRlGTcXWpsd-138" edge="1">
          <mxGeometry width="50" height="50" relative="1" as="geometry">
            <mxPoint x="1980" y="990" as="sourcePoint" />
            <mxPoint x="2030" y="940" as="targetPoint" />
          </mxGeometry>
        </mxCell>
        <mxCell id="9JSYzaQLczRlGTcXWpsd-141" value="" style="endArrow=none;html=1;rounded=0;fontSize=10;" parent="1" source="9JSYzaQLczRlGTcXWpsd-137" edge="1">
          <mxGeometry width="50" height="50" relative="1" as="geometry">
            <mxPoint x="1980" y="990" as="sourcePoint" />
            <mxPoint x="1930" y="849.9999999999995" as="targetPoint" />
          </mxGeometry>
        </mxCell>
        <mxCell id="9JSYzaQLczRlGTcXWpsd-142" value="Просмотреть страницу транзакций" style="ellipse;whiteSpace=wrap;html=1;" parent="1" vertex="1">
          <mxGeometry x="2050" y="1010" width="120" height="80" as="geometry" />
        </mxCell>
        <mxCell id="9JSYzaQLczRlGTcXWpsd-143" value="" style="endArrow=none;html=1;rounded=0;fontSize=10;" parent="1" source="9JSYzaQLczRlGTcXWpsd-142" target="9JSYzaQLczRlGTcXWpsd-138" edge="1">
          <mxGeometry width="50" height="50" relative="1" as="geometry">
            <mxPoint x="1830" y="970" as="sourcePoint" />
            <mxPoint x="1880" y="920" as="targetPoint" />
          </mxGeometry>
        </mxCell>
        <mxCell id="9JSYzaQLczRlGTcXWpsd-145" value="" style="endArrow=classic;html=1;rounded=0;dashed=1;" parent="1" target="9JSYzaQLczRlGTcXWpsd-142" edge="1">
          <mxGeometry width="50" height="50" relative="1" as="geometry">
            <mxPoint x="2109.9999999999995" y="960" as="sourcePoint" />
            <mxPoint x="2169.314671110177" y="950.7846265255885" as="targetPoint" />
          </mxGeometry>
        </mxCell>
        <mxCell id="9JSYzaQLczRlGTcXWpsd-146" value="extend" style="text;html=1;align=center;verticalAlign=middle;resizable=0;points=[];autosize=1;strokeColor=none;fillColor=none;fontSize=10;" parent="1" vertex="1">
          <mxGeometry x="2062" y="967" width="50" height="30" as="geometry" />
        </mxCell>
        <mxCell id="9JSYzaQLczRlGTcXWpsd-147" value="" style="endArrow=classic;html=1;rounded=0;dashed=1;fontSize=10;exitX=0;exitY=0.5;exitDx=0;exitDy=0;" parent="1" source="9JSYzaQLczRlGTcXWpsd-101" target="9JSYzaQLczRlGTcXWpsd-121" edge="1">
          <mxGeometry width="50" height="50" relative="1" as="geometry">
            <mxPoint x="-1102" y="-510" as="sourcePoint" />
            <mxPoint x="-1200" y="-510" as="targetPoint" />
          </mxGeometry>
        </mxCell>
        <mxCell id="9JSYzaQLczRlGTcXWpsd-148" value="extend" style="text;html=1;align=center;verticalAlign=middle;resizable=0;points=[];autosize=1;strokeColor=none;fillColor=none;fontSize=10;" parent="1" vertex="1">
          <mxGeometry x="-1209.5" y="-620" width="50" height="30" as="geometry" />
        </mxCell>
        <mxCell id="9JSYzaQLczRlGTcXWpsd-149" value="Добавить иконку для категории" style="ellipse;whiteSpace=wrap;html=1;" parent="1" vertex="1">
          <mxGeometry x="-540" y="-670" width="120" height="80" as="geometry" />
        </mxCell>
        <mxCell id="9JSYzaQLczRlGTcXWpsd-150" value="extend" style="text;html=1;align=center;verticalAlign=middle;resizable=0;points=[];autosize=1;strokeColor=none;fillColor=none;fontSize=10;" parent="1" vertex="1">
          <mxGeometry x="2790" y="370" width="50" height="30" as="geometry" />
        </mxCell>
        <mxCell id="9JSYzaQLczRlGTcXWpsd-151" value="" style="endArrow=classic;html=1;rounded=0;dashed=1;fontSize=10;" parent="1" source="9JSYzaQLczRlGTcXWpsd-149" target="9JSYzaQLczRlGTcXWpsd-105" edge="1">
          <mxGeometry width="50" height="50" relative="1" as="geometry">
            <mxPoint x="-500" y="-620" as="sourcePoint" />
            <mxPoint x="-794.6372323264623" y="-542.3142532189229" as="targetPoint" />
          </mxGeometry>
        </mxCell>
        <mxCell id="9JSYzaQLczRlGTcXWpsd-153" value="User" style="shape=umlActor;verticalLabelPosition=bottom;verticalAlign=top;html=1;outlineConnect=0;fontSize=10;" parent="1" vertex="1">
          <mxGeometry x="-1450" y="-605" width="30" height="60" as="geometry" />
        </mxCell>
        <mxCell id="9JSYzaQLczRlGTcXWpsd-154" value="Admin" style="shape=umlActor;verticalLabelPosition=bottom;verticalAlign=top;html=1;outlineConnect=0;fontSize=10;" parent="1" vertex="1">
          <mxGeometry x="-1530" y="-540" width="30" height="60" as="geometry" />
        </mxCell>
        <mxCell id="9JSYzaQLczRlGTcXWpsd-155" value="" style="endArrow=none;html=1;rounded=0;fontSize=10;" parent="1" source="9JSYzaQLczRlGTcXWpsd-154" target="9JSYzaQLczRlGTcXWpsd-153" edge="1">
          <mxGeometry width="50" height="50" relative="1" as="geometry">
            <mxPoint x="-1400" y="-450" as="sourcePoint" />
            <mxPoint x="-1350" y="-500" as="targetPoint" />
          </mxGeometry>
        </mxCell>
        <mxCell id="9JSYzaQLczRlGTcXWpsd-156" value="" style="endArrow=none;html=1;rounded=0;fontSize=10;" parent="1" edge="1">
          <mxGeometry width="50" height="50" relative="1" as="geometry">
            <mxPoint x="-1500" y="-636.1538461538466" as="sourcePoint" />
            <mxPoint x="-1450" y="-590.0000000000005" as="targetPoint" />
          </mxGeometry>
        </mxCell>
        <mxCell id="9JSYzaQLczRlGTcXWpsd-157" value="" style="endArrow=none;html=1;rounded=0;fontSize=10;" parent="1" source="9JSYzaQLczRlGTcXWpsd-153" target="9JSYzaQLczRlGTcXWpsd-121" edge="1">
          <mxGeometry width="50" height="50" relative="1" as="geometry">
            <mxPoint x="-1370" y="-310" as="sourcePoint" />
            <mxPoint x="-1320" y="-360" as="targetPoint" />
          </mxGeometry>
        </mxCell>
        <mxCell id="9JSYzaQLczRlGTcXWpsd-159" value="" style="whiteSpace=wrap;html=1;strokeColor=#000000;fontSize=28;fontColor=#000000;" parent="1" vertex="1">
          <mxGeometry x="3300" y="320" width="460" height="740" as="geometry" />
        </mxCell>
        <mxCell id="9JSYzaQLczRlGTcXWpsd-160" value="" style="rounded=1;whiteSpace=wrap;html=1;strokeColor=#000000;fontSize=28;fontColor=#000000;" parent="1" vertex="1">
          <mxGeometry x="3365" y="450" width="290" height="60" as="geometry" />
        </mxCell>
        <mxCell id="9JSYzaQLczRlGTcXWpsd-161" value="Категория 1" style="text;html=1;align=center;verticalAlign=middle;resizable=0;points=[];autosize=1;strokeColor=none;fillColor=none;fontSize=28;fontColor=#000000;" parent="1" vertex="1">
          <mxGeometry x="3380" y="455" width="180" height="50" as="geometry" />
        </mxCell>
        <mxCell id="9JSYzaQLczRlGTcXWpsd-164" value="" style="rounded=1;whiteSpace=wrap;html=1;strokeColor=#000000;fontSize=22;fontColor=#007FFF;fillColor=none;" parent="1" vertex="1">
          <mxGeometry x="3420" y="980" width="220" height="60" as="geometry" />
        </mxCell>
        <mxCell id="9JSYzaQLczRlGTcXWpsd-165" value="&lt;div&gt;Добавить &lt;br&gt;&lt;/div&gt;&lt;div&gt;категорию&lt;/div&gt;" style="text;html=1;align=center;verticalAlign=middle;resizable=0;points=[];autosize=1;strokeColor=none;fillColor=none;fontSize=22;fontColor=#000000;" parent="1" vertex="1">
          <mxGeometry x="3460" y="975" width="130" height="70" as="geometry" />
        </mxCell>
        <mxCell id="9JSYzaQLczRlGTcXWpsd-166" value="" style="rounded=1;whiteSpace=wrap;html=1;strokeColor=#000000;fontSize=28;fontColor=#000000;" parent="1" vertex="1">
          <mxGeometry x="3365" y="540" width="290" height="60" as="geometry" />
        </mxCell>
        <mxCell id="9JSYzaQLczRlGTcXWpsd-167" value="Категория 2" style="text;html=1;align=center;verticalAlign=middle;resizable=0;points=[];autosize=1;strokeColor=none;fillColor=none;fontSize=28;fontColor=#000000;" parent="1" vertex="1">
          <mxGeometry x="3380" y="545" width="180" height="50" as="geometry" />
        </mxCell>
        <mxCell id="9JSYzaQLczRlGTcXWpsd-168" value="" style="rounded=1;whiteSpace=wrap;html=1;strokeColor=#000000;fontSize=28;fontColor=#000000;" parent="1" vertex="1">
          <mxGeometry x="3365" y="627" width="290" height="60" as="geometry" />
        </mxCell>
        <mxCell id="9JSYzaQLczRlGTcXWpsd-169" value="Категория 3" style="text;html=1;align=center;verticalAlign=middle;resizable=0;points=[];autosize=1;strokeColor=none;fillColor=none;fontSize=28;fontColor=#000000;" parent="1" vertex="1">
          <mxGeometry x="3380" y="632" width="180" height="50" as="geometry" />
        </mxCell>
        <mxCell id="9JSYzaQLczRlGTcXWpsd-170" value="" style="rounded=1;whiteSpace=wrap;html=1;strokeColor=#000000;fontSize=28;fontColor=#000000;" parent="1" vertex="1">
          <mxGeometry x="3365" y="716" width="290" height="60" as="geometry" />
        </mxCell>
        <mxCell id="9JSYzaQLczRlGTcXWpsd-171" value="Категория 4" style="text;html=1;align=center;verticalAlign=middle;resizable=0;points=[];autosize=1;strokeColor=none;fillColor=none;fontSize=28;fontColor=#000000;" parent="1" vertex="1">
          <mxGeometry x="3380" y="721" width="180" height="50" as="geometry" />
        </mxCell>
        <mxCell id="9JSYzaQLczRlGTcXWpsd-172" value="" style="rounded=1;whiteSpace=wrap;html=1;strokeColor=#000000;fontSize=28;fontColor=#000000;" parent="1" vertex="1">
          <mxGeometry x="3365" y="806" width="290" height="60" as="geometry" />
        </mxCell>
        <mxCell id="9JSYzaQLczRlGTcXWpsd-173" value="Категория 5" style="text;html=1;align=center;verticalAlign=middle;resizable=0;points=[];autosize=1;strokeColor=none;fillColor=none;fontSize=28;fontColor=#000000;" parent="1" vertex="1">
          <mxGeometry x="3380" y="811" width="180" height="50" as="geometry" />
        </mxCell>
        <mxCell id="9JSYzaQLczRlGTcXWpsd-174" value="" style="strokeColor=#999999;verticalLabelPosition=bottom;shadow=0;dashed=0;verticalAlign=top;strokeWidth=2;html=1;shape=mxgraph.mockup.misc.editIcon;fontSize=23;fontColor=#000000;fillColor=none;" parent="1" vertex="1">
          <mxGeometry x="3660" y="455" width="45" height="45" as="geometry" />
        </mxCell>
        <mxCell id="9JSYzaQLczRlGTcXWpsd-175" value="" style="strokeColor=#999999;verticalLabelPosition=bottom;shadow=0;dashed=0;verticalAlign=top;strokeWidth=2;html=1;shape=mxgraph.mockup.misc.editIcon;fontSize=23;fontColor=#000000;fillColor=none;" parent="1" vertex="1">
          <mxGeometry x="3660" y="545" width="45" height="45" as="geometry" />
        </mxCell>
        <mxCell id="9JSYzaQLczRlGTcXWpsd-176" value="" style="strokeColor=#999999;verticalLabelPosition=bottom;shadow=0;dashed=0;verticalAlign=top;strokeWidth=2;html=1;shape=mxgraph.mockup.misc.editIcon;fontSize=23;fontColor=#000000;fillColor=none;" parent="1" vertex="1">
          <mxGeometry x="3661" y="635" width="45" height="45" as="geometry" />
        </mxCell>
        <mxCell id="9JSYzaQLczRlGTcXWpsd-177" value="" style="strokeColor=#999999;verticalLabelPosition=bottom;shadow=0;dashed=0;verticalAlign=top;strokeWidth=2;html=1;shape=mxgraph.mockup.misc.editIcon;fontSize=23;fontColor=#000000;fillColor=none;" parent="1" vertex="1">
          <mxGeometry x="3661" y="725" width="45" height="45" as="geometry" />
        </mxCell>
        <mxCell id="9JSYzaQLczRlGTcXWpsd-178" value="" style="strokeColor=#999999;verticalLabelPosition=bottom;shadow=0;dashed=0;verticalAlign=top;strokeWidth=2;html=1;shape=mxgraph.mockup.misc.editIcon;fontSize=23;fontColor=#000000;fillColor=none;" parent="1" vertex="1">
          <mxGeometry x="3661" y="815" width="45" height="45" as="geometry" />
        </mxCell>
        <mxCell id="9JSYzaQLczRlGTcXWpsd-179" value="Выберите категорию" style="text;html=1;align=center;verticalAlign=middle;resizable=0;points=[];autosize=1;strokeColor=none;fillColor=none;fontSize=28;fontColor=#000000;" parent="1" vertex="1">
          <mxGeometry x="3375" y="345" width="290" height="50" as="geometry" />
        </mxCell>
        <mxCell id="9JSYzaQLczRlGTcXWpsd-183" value="" style="endArrow=classic;html=1;rounded=0;strokeColor=#000000;strokeWidth=2;fontSize=23;fontColor=#000000;" parent="1" edge="1">
          <mxGeometry width="50" height="50" relative="1" as="geometry">
            <mxPoint x="3370" y="370" as="sourcePoint" />
            <mxPoint x="3330" y="370" as="targetPoint" />
          </mxGeometry>
        </mxCell>
        <mxCell id="9JSYzaQLczRlGTcXWpsd-184" value="" style="whiteSpace=wrap;html=1;fontSize=10;fillColor=none;" parent="1" vertex="1">
          <mxGeometry x="-920" y="610" width="650" height="480" as="geometry" />
        </mxCell>
        <mxCell id="9JSYzaQLczRlGTcXWpsd-185" value="Выбрать валюту при внесении данных" style="ellipse;whiteSpace=wrap;html=1;" parent="1" vertex="1">
          <mxGeometry x="-632" y="868" width="120" height="80" as="geometry" />
        </mxCell>
        <mxCell id="9JSYzaQLczRlGTcXWpsd-186" value="&lt;div&gt;Добавить категорию&lt;/div&gt;" style="ellipse;whiteSpace=wrap;html=1;" parent="1" vertex="1">
          <mxGeometry x="-632" y="766" width="120" height="80" as="geometry" />
        </mxCell>
        <mxCell id="9JSYzaQLczRlGTcXWpsd-187" value="Добавить иконку для категории" style="ellipse;whiteSpace=wrap;html=1;" parent="1" vertex="1">
          <mxGeometry x="-420" y="766" width="120" height="80" as="geometry" />
        </mxCell>
        <mxCell id="9JSYzaQLczRlGTcXWpsd-188" value="" style="endArrow=classic;html=1;rounded=0;dashed=1;" parent="1" source="9JSYzaQLczRlGTcXWpsd-185" target="9JSYzaQLczRlGTcXWpsd-194" edge="1">
          <mxGeometry width="50" height="50" relative="1" as="geometry">
            <mxPoint x="-1241" y="400" as="sourcePoint" />
            <mxPoint x="-1340" y="400" as="targetPoint" />
          </mxGeometry>
        </mxCell>
        <mxCell id="9JSYzaQLczRlGTcXWpsd-189" value="" style="endArrow=classic;html=1;rounded=0;dashed=1;exitX=0;exitY=0.5;exitDx=0;exitDy=0;entryX=1;entryY=0.5;entryDx=0;entryDy=0;" parent="1" source="9JSYzaQLczRlGTcXWpsd-186" target="9JSYzaQLczRlGTcXWpsd-194" edge="1">
          <mxGeometry width="50" height="50" relative="1" as="geometry">
            <mxPoint x="-1230" y="410" as="sourcePoint" />
            <mxPoint x="-1353.92" y="426.6399999999999" as="targetPoint" />
          </mxGeometry>
        </mxCell>
        <mxCell id="9JSYzaQLczRlGTcXWpsd-190" value="" style="endArrow=classic;html=1;rounded=0;dashed=1;fontSize=10;exitX=0.5;exitY=0;exitDx=0;exitDy=0;" parent="1" source="9JSYzaQLczRlGTcXWpsd-186" target="9JSYzaQLczRlGTcXWpsd-191" edge="1">
          <mxGeometry width="50" height="50" relative="1" as="geometry">
            <mxPoint x="-1150" y="310" as="sourcePoint" />
            <mxPoint x="-1100" y="260" as="targetPoint" />
          </mxGeometry>
        </mxCell>
        <mxCell id="9JSYzaQLczRlGTcXWpsd-191" value="Просмотреть список категорий" style="ellipse;whiteSpace=wrap;html=1;" parent="1" vertex="1">
          <mxGeometry x="-420" y="665" width="120" height="80" as="geometry" />
        </mxCell>
        <mxCell id="9JSYzaQLczRlGTcXWpsd-192" value="" style="endArrow=classic;html=1;rounded=0;dashed=1;fontSize=10;entryX=1;entryY=0.5;entryDx=0;entryDy=0;" parent="1" source="9JSYzaQLczRlGTcXWpsd-187" target="9JSYzaQLczRlGTcXWpsd-186" edge="1">
          <mxGeometry width="50" height="50" relative="1" as="geometry">
            <mxPoint x="-640" y="300" as="sourcePoint" />
            <mxPoint x="-1110" y="190" as="targetPoint" />
          </mxGeometry>
        </mxCell>
        <mxCell id="9JSYzaQLczRlGTcXWpsd-193" value="Просмотреть транзакцию" style="ellipse;whiteSpace=wrap;html=1;" parent="1" vertex="1">
          <mxGeometry x="-850" y="868" width="120" height="80" as="geometry" />
        </mxCell>
        <mxCell id="9JSYzaQLczRlGTcXWpsd-194" value="&lt;div&gt;Создать &lt;br&gt;&lt;/div&gt;&lt;div&gt;транзакцию&lt;/div&gt;" style="ellipse;whiteSpace=wrap;html=1;" parent="1" vertex="1">
          <mxGeometry x="-850" y="766" width="120" height="80" as="geometry" />
        </mxCell>
        <mxCell id="9JSYzaQLczRlGTcXWpsd-195" value="" style="endArrow=none;html=1;rounded=0;fontSize=10;entryX=0;entryY=0.5;entryDx=0;entryDy=0;exitX=1;exitY=0.3333333333333333;exitDx=0;exitDy=0;exitPerimeter=0;" parent="1" source="9JSYzaQLczRlGTcXWpsd-208" target="9JSYzaQLczRlGTcXWpsd-194" edge="1">
          <mxGeometry width="50" height="50" relative="1" as="geometry">
            <mxPoint x="-940" y="809.4285714285716" as="sourcePoint" />
            <mxPoint x="-870" y="830" as="targetPoint" />
          </mxGeometry>
        </mxCell>
        <mxCell id="9JSYzaQLczRlGTcXWpsd-196" value="" style="endArrow=none;html=1;rounded=0;fontSize=10;entryX=0;entryY=0.4;entryDx=0;entryDy=0;entryPerimeter=0;" parent="1" source="9JSYzaQLczRlGTcXWpsd-208" target="9JSYzaQLczRlGTcXWpsd-193" edge="1">
          <mxGeometry width="50" height="50" relative="1" as="geometry">
            <mxPoint x="-890" y="880" as="sourcePoint" />
            <mxPoint x="-860" y="920" as="targetPoint" />
          </mxGeometry>
        </mxCell>
        <mxCell id="9JSYzaQLczRlGTcXWpsd-197" value="&lt;div&gt;Удалить &lt;br&gt;&lt;/div&gt;&lt;div&gt;транзакцию&lt;/div&gt;" style="ellipse;whiteSpace=wrap;html=1;" parent="1" vertex="1">
          <mxGeometry x="-632" y="969" width="120" height="80" as="geometry" />
        </mxCell>
        <mxCell id="9JSYzaQLczRlGTcXWpsd-198" value="extend" style="text;html=1;align=center;verticalAlign=middle;resizable=0;points=[];autosize=1;strokeColor=none;fillColor=none;fontSize=10;" parent="1" vertex="1">
          <mxGeometry x="-710" y="860" width="50" height="30" as="geometry" />
        </mxCell>
        <mxCell id="9JSYzaQLczRlGTcXWpsd-199" value="" style="endArrow=classic;html=1;rounded=0;dashed=1;" parent="1" source="9JSYzaQLczRlGTcXWpsd-197" target="9JSYzaQLczRlGTcXWpsd-193" edge="1">
          <mxGeometry width="50" height="50" relative="1" as="geometry">
            <mxPoint x="-640" y="908" as="sourcePoint" />
            <mxPoint x="-730" y="908" as="targetPoint" />
          </mxGeometry>
        </mxCell>
        <mxCell id="9JSYzaQLczRlGTcXWpsd-200" value="include" style="text;html=1;align=center;verticalAlign=middle;resizable=0;points=[];autosize=1;strokeColor=none;fillColor=none;fontSize=10;flipV=1;flipH=1;" parent="1" vertex="1">
          <mxGeometry x="-510" y="712" width="60" height="30" as="geometry" />
        </mxCell>
        <mxCell id="9JSYzaQLczRlGTcXWpsd-201" value="extend" style="text;html=1;align=center;verticalAlign=middle;resizable=0;points=[];autosize=1;strokeColor=none;fillColor=none;fontSize=10;" parent="1" vertex="1">
          <mxGeometry x="-485" y="781" width="50" height="30" as="geometry" />
        </mxCell>
        <mxCell id="9JSYzaQLczRlGTcXWpsd-202" value="extend" style="text;html=1;align=center;verticalAlign=middle;resizable=0;points=[];autosize=1;strokeColor=none;fillColor=none;fontSize=10;" parent="1" vertex="1">
          <mxGeometry x="-695" y="781" width="50" height="30" as="geometry" />
        </mxCell>
        <mxCell id="9JSYzaQLczRlGTcXWpsd-203" value="extend" style="text;html=1;align=center;verticalAlign=middle;resizable=0;points=[];autosize=1;strokeColor=none;fillColor=none;fontSize=10;" parent="1" vertex="1">
          <mxGeometry x="-708" y="963" width="50" height="30" as="geometry" />
        </mxCell>
        <mxCell id="9JSYzaQLczRlGTcXWpsd-204" value="&lt;div&gt;Сохранить&lt;/div&gt;&lt;div&gt;транзакцию&lt;br&gt;&lt;/div&gt;" style="ellipse;whiteSpace=wrap;html=1;" parent="1" vertex="1">
          <mxGeometry x="-632" y="660" width="120" height="80" as="geometry" />
        </mxCell>
        <mxCell id="9JSYzaQLczRlGTcXWpsd-205" value="" style="endArrow=classic;html=1;rounded=0;dashed=1;fontSize=10;" parent="1" source="9JSYzaQLczRlGTcXWpsd-194" target="9JSYzaQLczRlGTcXWpsd-204" edge="1">
          <mxGeometry width="50" height="50" relative="1" as="geometry">
            <mxPoint x="-222.4957164564098" y="597.6299228048542" as="sourcePoint" />
            <mxPoint x="-326.2399999999998" y="559.1999999999998" as="targetPoint" />
          </mxGeometry>
        </mxCell>
        <mxCell id="9JSYzaQLczRlGTcXWpsd-206" value="include" style="text;html=1;align=center;verticalAlign=middle;resizable=0;points=[];autosize=1;strokeColor=none;fillColor=none;fontSize=10;flipV=1;flipH=1;" parent="1" vertex="1">
          <mxGeometry x="-711" y="722" width="60" height="30" as="geometry" />
        </mxCell>
        <mxCell id="9JSYzaQLczRlGTcXWpsd-207" value="&lt;div&gt;Common&lt;/div&gt;&lt;div&gt;User&lt;br&gt;&lt;/div&gt;" style="shape=umlActor;verticalLabelPosition=bottom;verticalAlign=top;html=1;outlineConnect=0;fontSize=10;" parent="1" vertex="1">
          <mxGeometry x="-1050" y="750" width="30" height="60" as="geometry" />
        </mxCell>
        <mxCell id="9JSYzaQLczRlGTcXWpsd-208" value="User" style="shape=umlActor;verticalLabelPosition=bottom;verticalAlign=top;html=1;outlineConnect=0;fontSize=10;" parent="1" vertex="1">
          <mxGeometry x="-970" y="825" width="30" height="60" as="geometry" />
        </mxCell>
        <mxCell id="9JSYzaQLczRlGTcXWpsd-209" value="Admin" style="shape=umlActor;verticalLabelPosition=bottom;verticalAlign=top;html=1;outlineConnect=0;fontSize=10;" parent="1" vertex="1">
          <mxGeometry x="-1050" y="890" width="30" height="60" as="geometry" />
        </mxCell>
        <mxCell id="9JSYzaQLczRlGTcXWpsd-210" value="" style="endArrow=block;html=1;rounded=0;fontSize=10;endFill=0;" parent="1" source="9JSYzaQLczRlGTcXWpsd-209" target="9JSYzaQLczRlGTcXWpsd-208" edge="1">
          <mxGeometry width="50" height="50" relative="1" as="geometry">
            <mxPoint x="-920" y="980" as="sourcePoint" />
            <mxPoint x="-870" y="930" as="targetPoint" />
          </mxGeometry>
        </mxCell>
        <mxCell id="9JSYzaQLczRlGTcXWpsd-211" value="" style="endArrow=block;html=1;rounded=0;fontSize=10;endFill=0;" parent="1" source="9JSYzaQLczRlGTcXWpsd-207" edge="1">
          <mxGeometry width="50" height="50" relative="1" as="geometry">
            <mxPoint x="-920" y="980" as="sourcePoint" />
            <mxPoint x="-970" y="840" as="targetPoint" />
          </mxGeometry>
        </mxCell>
        <mxCell id="9JSYzaQLczRlGTcXWpsd-212" value="Просмотреть страницу транзакций" style="ellipse;whiteSpace=wrap;html=1;" parent="1" vertex="1">
          <mxGeometry x="-850" y="1000" width="120" height="80" as="geometry" />
        </mxCell>
        <mxCell id="9JSYzaQLczRlGTcXWpsd-213" value="" style="endArrow=none;html=1;rounded=0;fontSize=10;" parent="1" source="9JSYzaQLczRlGTcXWpsd-212" target="9JSYzaQLczRlGTcXWpsd-208" edge="1">
          <mxGeometry width="50" height="50" relative="1" as="geometry">
            <mxPoint x="-1070" y="960" as="sourcePoint" />
            <mxPoint x="-1020" y="910" as="targetPoint" />
          </mxGeometry>
        </mxCell>
        <mxCell id="9JSYzaQLczRlGTcXWpsd-214" value="" style="endArrow=classic;html=1;rounded=0;dashed=1;" parent="1" target="9JSYzaQLczRlGTcXWpsd-212" edge="1">
          <mxGeometry width="50" height="50" relative="1" as="geometry">
            <mxPoint x="-790" y="950" as="sourcePoint" />
            <mxPoint x="-730.6853288898228" y="940.7846265255885" as="targetPoint" />
          </mxGeometry>
        </mxCell>
        <mxCell id="9JSYzaQLczRlGTcXWpsd-215" value="extend" style="text;html=1;align=center;verticalAlign=middle;resizable=0;points=[];autosize=1;strokeColor=none;fillColor=none;fontSize=10;" parent="1" vertex="1">
          <mxGeometry x="-838" y="957" width="50" height="30" as="geometry" />
        </mxCell>
        <mxCell id="9JSYzaQLczRlGTcXWpsd-216" value="&lt;b&gt;&lt;font style=&quot;font-size: 28px;&quot;&gt;VERSION 1.0&lt;br&gt;&lt;/font&gt;&lt;/b&gt;" style="text;html=1;align=center;verticalAlign=middle;resizable=0;points=[];autosize=1;strokeColor=none;fillColor=none;" parent="1" vertex="1">
          <mxGeometry x="-913" y="545" width="200" height="50" as="geometry" />
        </mxCell>
        <mxCell id="9JSYzaQLczRlGTcXWpsd-217" value="&lt;b&gt;&lt;font style=&quot;font-size: 28px;&quot;&gt;VERSION 2.0&lt;br&gt;&lt;/font&gt;&lt;/b&gt;" style="text;html=1;align=center;verticalAlign=middle;resizable=0;points=[];autosize=1;strokeColor=none;fillColor=none;" parent="1" vertex="1">
          <mxGeometry x="590" y="577" width="200" height="50" as="geometry" />
        </mxCell>
        <mxCell id="9JSYzaQLczRlGTcXWpsd-218" value="Внести сумму" style="ellipse;whiteSpace=wrap;html=1;strokeColor=#006600;" parent="1" vertex="1">
          <mxGeometry x="5477" y="669" width="120" height="80" as="geometry" />
        </mxCell>
        <mxCell id="9JSYzaQLczRlGTcXWpsd-219" value="" style="endArrow=none;html=1;rounded=0;dashed=1;endFill=0;startArrow=classic;startFill=1;strokeColor=#009900;" parent="1" source="9JSYzaQLczRlGTcXWpsd-218" target="iH67yDx8k5spiiFpo-aq-127" edge="1">
          <mxGeometry width="50" height="50" relative="1" as="geometry">
            <mxPoint x="5487" y="805" as="sourcePoint" />
            <mxPoint x="5389" y="775" as="targetPoint" />
          </mxGeometry>
        </mxCell>
        <mxCell id="9JSYzaQLczRlGTcXWpsd-220" value="include" style="text;html=1;align=center;verticalAlign=middle;resizable=0;points=[];autosize=1;strokeColor=none;fillColor=none;fontSize=10;" parent="1" vertex="1">
          <mxGeometry x="5401" y="770" width="60" height="30" as="geometry" />
        </mxCell>
        <mxCell id="9JSYzaQLczRlGTcXWpsd-221" value="Внести комментарий" style="ellipse;whiteSpace=wrap;html=1;strokeColor=#006600;" parent="1" vertex="1">
          <mxGeometry x="5639" y="870" width="120" height="80" as="geometry" />
        </mxCell>
        <mxCell id="9JSYzaQLczRlGTcXWpsd-222" value="" style="endArrow=none;html=1;rounded=0;dashed=1;endFill=0;startArrow=classic;startFill=1;strokeColor=#009900;" parent="1" source="9JSYzaQLczRlGTcXWpsd-221" target="iH67yDx8k5spiiFpo-aq-127" edge="1">
          <mxGeometry width="50" height="50" relative="1" as="geometry">
            <mxPoint x="5490.891885015031" y="733.1716372900182" as="sourcePoint" />
            <mxPoint x="5384.9924385189115" y="760.6264621426549" as="targetPoint" />
          </mxGeometry>
        </mxCell>
        <mxCell id="9JSYzaQLczRlGTcXWpsd-223" value="include" style="text;html=1;align=center;verticalAlign=middle;resizable=0;points=[];autosize=1;strokeColor=none;fillColor=none;fontSize=10;" parent="1" vertex="1">
          <mxGeometry x="5585" y="849" width="60" height="30" as="geometry" />
        </mxCell>
        <mxCell id="9JSYzaQLczRlGTcXWpsd-224" value="" style="whiteSpace=wrap;html=1;fontSize=10;fillColor=none;" parent="1" vertex="1">
          <mxGeometry x="5099" y="-65" width="860" height="480" as="geometry" />
        </mxCell>
        <mxCell id="9JSYzaQLczRlGTcXWpsd-225" value="Выбрать валюту при внесении данных" style="ellipse;whiteSpace=wrap;html=1;strokeColor=#009900;" parent="1" vertex="1">
          <mxGeometry x="5569" y="-19" width="120" height="80" as="geometry" />
        </mxCell>
        <mxCell id="9JSYzaQLczRlGTcXWpsd-227" value="" style="endArrow=classic;html=1;rounded=0;dashed=1;endFill=1;startArrow=none;startFill=0;strokeColor=#009900;" parent="1" source="9JSYzaQLczRlGTcXWpsd-225" target="9JSYzaQLczRlGTcXWpsd-254" edge="1">
          <mxGeometry width="50" height="50" relative="1" as="geometry">
            <mxPoint x="4778" y="-275" as="sourcePoint" />
            <mxPoint x="4679" y="-275" as="targetPoint" />
          </mxGeometry>
        </mxCell>
        <mxCell id="9JSYzaQLczRlGTcXWpsd-229" value="" style="endArrow=classic;html=1;rounded=0;dashed=1;fontSize=10;" parent="1" source="9JSYzaQLczRlGTcXWpsd-260" target="9JSYzaQLczRlGTcXWpsd-230" edge="1">
          <mxGeometry width="50" height="50" relative="1" as="geometry">
            <mxPoint x="5889" y="-28" as="sourcePoint" />
            <mxPoint x="4919" y="-415" as="targetPoint" />
          </mxGeometry>
        </mxCell>
        <mxCell id="9JSYzaQLczRlGTcXWpsd-230" value="Просмотреть список категорий" style="ellipse;whiteSpace=wrap;html=1;" parent="1" vertex="1">
          <mxGeometry x="5699" y="105" width="120" height="80" as="geometry" />
        </mxCell>
        <mxCell id="9JSYzaQLczRlGTcXWpsd-231" value="Просмотреть транзакцию" style="ellipse;whiteSpace=wrap;html=1;" parent="1" vertex="1">
          <mxGeometry x="5169" y="193" width="120" height="80" as="geometry" />
        </mxCell>
        <mxCell id="9JSYzaQLczRlGTcXWpsd-232" value="&lt;div&gt;Создать &lt;br&gt;&lt;/div&gt;&lt;div&gt;транзакцию&lt;/div&gt;" style="ellipse;whiteSpace=wrap;html=1;" parent="1" vertex="1">
          <mxGeometry x="5169" y="91" width="120" height="80" as="geometry" />
        </mxCell>
        <mxCell id="9JSYzaQLczRlGTcXWpsd-233" value="" style="endArrow=none;html=1;rounded=0;fontSize=10;entryX=0;entryY=0.5;entryDx=0;entryDy=0;exitX=1;exitY=0.3333333333333333;exitDx=0;exitDy=0;exitPerimeter=0;" parent="1" source="9JSYzaQLczRlGTcXWpsd-245" target="9JSYzaQLczRlGTcXWpsd-232" edge="1">
          <mxGeometry width="50" height="50" relative="1" as="geometry">
            <mxPoint x="5079" y="134.42857142857156" as="sourcePoint" />
            <mxPoint x="5149" y="155" as="targetPoint" />
          </mxGeometry>
        </mxCell>
        <mxCell id="9JSYzaQLczRlGTcXWpsd-234" value="" style="endArrow=none;html=1;rounded=0;fontSize=10;entryX=0;entryY=0.4;entryDx=0;entryDy=0;entryPerimeter=0;" parent="1" source="9JSYzaQLczRlGTcXWpsd-245" target="9JSYzaQLczRlGTcXWpsd-231" edge="1">
          <mxGeometry width="50" height="50" relative="1" as="geometry">
            <mxPoint x="5129" y="205" as="sourcePoint" />
            <mxPoint x="5159" y="245" as="targetPoint" />
          </mxGeometry>
        </mxCell>
        <mxCell id="9JSYzaQLczRlGTcXWpsd-235" value="&lt;div&gt;Удалить &lt;br&gt;&lt;/div&gt;&lt;div&gt;транзакцию&lt;/div&gt;" style="ellipse;whiteSpace=wrap;html=1;" parent="1" vertex="1">
          <mxGeometry x="5387" y="324" width="120" height="80" as="geometry" />
        </mxCell>
        <mxCell id="9JSYzaQLczRlGTcXWpsd-236" value="extend" style="text;html=1;align=center;verticalAlign=middle;resizable=0;points=[];autosize=1;strokeColor=none;fillColor=none;fontSize=10;" parent="1" vertex="1">
          <mxGeometry x="5507" y="40" width="50" height="30" as="geometry" />
        </mxCell>
        <mxCell id="9JSYzaQLczRlGTcXWpsd-237" value="" style="endArrow=classic;html=1;rounded=0;dashed=1;" parent="1" source="9JSYzaQLczRlGTcXWpsd-235" target="9JSYzaQLczRlGTcXWpsd-231" edge="1">
          <mxGeometry width="50" height="50" relative="1" as="geometry">
            <mxPoint x="5379" y="233" as="sourcePoint" />
            <mxPoint x="5289" y="233" as="targetPoint" />
          </mxGeometry>
        </mxCell>
        <mxCell id="9JSYzaQLczRlGTcXWpsd-238" value="include" style="text;html=1;align=center;verticalAlign=middle;resizable=0;points=[];autosize=1;strokeColor=none;fillColor=none;fontSize=10;flipV=1;flipH=1;rotation=-35;" parent="1" vertex="1">
          <mxGeometry x="5646" y="185" width="60" height="30" as="geometry" />
        </mxCell>
        <mxCell id="9JSYzaQLczRlGTcXWpsd-239" value="include" style="text;html=1;align=center;verticalAlign=middle;resizable=0;points=[];autosize=1;strokeColor=none;fillColor=none;fontSize=10;" parent="1" vertex="1">
          <mxGeometry x="5319" y="96" width="60" height="30" as="geometry" />
        </mxCell>
        <mxCell id="9JSYzaQLczRlGTcXWpsd-240" value="extend" style="text;html=1;align=center;verticalAlign=middle;resizable=0;points=[];autosize=1;strokeColor=none;fillColor=none;fontSize=10;" parent="1" vertex="1">
          <mxGeometry x="5311" y="288" width="50" height="30" as="geometry" />
        </mxCell>
        <mxCell id="9JSYzaQLczRlGTcXWpsd-241" value="&lt;div&gt;Сохранить&lt;/div&gt;&lt;div&gt;транзакцию&lt;br&gt;&lt;/div&gt;" style="ellipse;whiteSpace=wrap;html=1;" parent="1" vertex="1">
          <mxGeometry x="5387" y="-55" width="120" height="80" as="geometry" />
        </mxCell>
        <mxCell id="9JSYzaQLczRlGTcXWpsd-242" value="" style="endArrow=classic;html=1;rounded=0;dashed=1;fontSize=10;" parent="1" source="9JSYzaQLczRlGTcXWpsd-232" target="9JSYzaQLczRlGTcXWpsd-241" edge="1">
          <mxGeometry width="50" height="50" relative="1" as="geometry">
            <mxPoint x="5796.504283543591" y="-77.37007719514577" as="sourcePoint" />
            <mxPoint x="5692.76" y="-115.80000000000018" as="targetPoint" />
          </mxGeometry>
        </mxCell>
        <mxCell id="9JSYzaQLczRlGTcXWpsd-243" value="include" style="text;html=1;align=center;verticalAlign=middle;resizable=0;points=[];autosize=1;strokeColor=none;fillColor=none;fontSize=10;flipV=1;flipH=1;" parent="1" vertex="1">
          <mxGeometry x="5308" y="47" width="60" height="30" as="geometry" />
        </mxCell>
        <mxCell id="9JSYzaQLczRlGTcXWpsd-244" value="&lt;div&gt;Common&lt;/div&gt;&lt;div&gt;User&lt;br&gt;&lt;/div&gt;" style="shape=umlActor;verticalLabelPosition=bottom;verticalAlign=top;html=1;outlineConnect=0;fontSize=10;" parent="1" vertex="1">
          <mxGeometry x="4980" y="60" width="30" height="60" as="geometry" />
        </mxCell>
        <mxCell id="9JSYzaQLczRlGTcXWpsd-245" value="User" style="shape=umlActor;verticalLabelPosition=bottom;verticalAlign=top;html=1;outlineConnect=0;fontSize=10;" parent="1" vertex="1">
          <mxGeometry x="5049" y="150" width="30" height="60" as="geometry" />
        </mxCell>
        <mxCell id="9JSYzaQLczRlGTcXWpsd-246" value="Admin" style="shape=umlActor;verticalLabelPosition=bottom;verticalAlign=top;html=1;outlineConnect=0;fontSize=10;" parent="1" vertex="1">
          <mxGeometry x="4980" y="200" width="30" height="60" as="geometry" />
        </mxCell>
        <mxCell id="9JSYzaQLczRlGTcXWpsd-247" value="" style="endArrow=block;html=1;rounded=0;fontSize=10;endFill=0;" parent="1" source="9JSYzaQLczRlGTcXWpsd-246" target="9JSYzaQLczRlGTcXWpsd-245" edge="1">
          <mxGeometry width="50" height="50" relative="1" as="geometry">
            <mxPoint x="1730" y="260" as="sourcePoint" />
            <mxPoint x="1780" y="210" as="targetPoint" />
          </mxGeometry>
        </mxCell>
        <mxCell id="9JSYzaQLczRlGTcXWpsd-248" value="" style="endArrow=block;html=1;rounded=0;fontSize=10;endFill=0;" parent="1" source="9JSYzaQLczRlGTcXWpsd-244" edge="1">
          <mxGeometry width="50" height="50" relative="1" as="geometry">
            <mxPoint x="5110" y="290" as="sourcePoint" />
            <mxPoint x="5060" y="149.99999999999955" as="targetPoint" />
          </mxGeometry>
        </mxCell>
        <mxCell id="9JSYzaQLczRlGTcXWpsd-249" value="Просмотреть страницу транзакций" style="ellipse;whiteSpace=wrap;html=1;" parent="1" vertex="1">
          <mxGeometry x="5169" y="325" width="120" height="80" as="geometry" />
        </mxCell>
        <mxCell id="9JSYzaQLczRlGTcXWpsd-250" value="" style="endArrow=none;html=1;rounded=0;fontSize=10;" parent="1" source="9JSYzaQLczRlGTcXWpsd-249" target="9JSYzaQLczRlGTcXWpsd-245" edge="1">
          <mxGeometry width="50" height="50" relative="1" as="geometry">
            <mxPoint x="4949" y="285" as="sourcePoint" />
            <mxPoint x="4999" y="235" as="targetPoint" />
          </mxGeometry>
        </mxCell>
        <mxCell id="9JSYzaQLczRlGTcXWpsd-251" value="" style="endArrow=classic;html=1;rounded=0;dashed=1;" parent="1" target="9JSYzaQLczRlGTcXWpsd-249" edge="1">
          <mxGeometry width="50" height="50" relative="1" as="geometry">
            <mxPoint x="5229" y="275" as="sourcePoint" />
            <mxPoint x="5288.314671110177" y="265.78462652558846" as="targetPoint" />
          </mxGeometry>
        </mxCell>
        <mxCell id="9JSYzaQLczRlGTcXWpsd-252" value="extend" style="text;html=1;align=center;verticalAlign=middle;resizable=0;points=[];autosize=1;strokeColor=none;fillColor=none;fontSize=10;" parent="1" vertex="1">
          <mxGeometry x="5181" y="282" width="50" height="30" as="geometry" />
        </mxCell>
        <mxCell id="9JSYzaQLczRlGTcXWpsd-253" value="&lt;b&gt;&lt;font style=&quot;font-size: 28px;&quot;&gt;VERSION 3.0&lt;br&gt;&lt;/font&gt;&lt;/b&gt;" style="text;html=1;align=center;verticalAlign=middle;resizable=0;points=[];autosize=1;strokeColor=none;fillColor=none;" parent="1" vertex="1">
          <mxGeometry x="1640" y="-143" width="200" height="50" as="geometry" />
        </mxCell>
        <mxCell id="9JSYzaQLczRlGTcXWpsd-254" value="Внести данные по транзакции" style="ellipse;whiteSpace=wrap;html=1;strokeColor=#006600;" parent="1" vertex="1">
          <mxGeometry x="5387" y="91" width="120" height="80" as="geometry" />
        </mxCell>
        <mxCell id="9JSYzaQLczRlGTcXWpsd-255" value="" style="endArrow=none;html=1;rounded=0;dashed=1;endFill=0;startArrow=classic;startFill=1;strokeColor=#009900;" parent="1" source="9JSYzaQLczRlGTcXWpsd-254" target="9JSYzaQLczRlGTcXWpsd-232" edge="1">
          <mxGeometry width="50" height="50" relative="1" as="geometry">
            <mxPoint x="5397" y="171" as="sourcePoint" />
            <mxPoint x="5299" y="141" as="targetPoint" />
          </mxGeometry>
        </mxCell>
        <mxCell id="9JSYzaQLczRlGTcXWpsd-260" value="Добавить категорию" style="ellipse;whiteSpace=wrap;html=1;strokeColor=#009900;" parent="1" vertex="1">
          <mxGeometry x="5559" y="232" width="120" height="80" as="geometry" />
        </mxCell>
        <mxCell id="9JSYzaQLczRlGTcXWpsd-261" value="Добавить иконку для категории" style="ellipse;whiteSpace=wrap;html=1;" parent="1" vertex="1">
          <mxGeometry x="5771" y="231" width="120" height="80" as="geometry" />
        </mxCell>
        <mxCell id="9JSYzaQLczRlGTcXWpsd-262" value="" style="endArrow=classic;html=1;rounded=0;dashed=1;fontSize=10;entryX=0.991;entryY=0.58;entryDx=0;entryDy=0;entryPerimeter=0;" parent="1" source="9JSYzaQLczRlGTcXWpsd-261" target="9JSYzaQLczRlGTcXWpsd-260" edge="1">
          <mxGeometry width="50" height="50" relative="1" as="geometry">
            <mxPoint x="5591" y="-275" as="sourcePoint" />
            <mxPoint x="5719" y="231" as="targetPoint" />
          </mxGeometry>
        </mxCell>
        <mxCell id="9JSYzaQLczRlGTcXWpsd-263" value="extend" style="text;html=1;align=center;verticalAlign=middle;resizable=0;points=[];autosize=1;strokeColor=none;fillColor=none;fontSize=10;" parent="1" vertex="1">
          <mxGeometry x="5703" y="247" width="50" height="30" as="geometry" />
        </mxCell>
        <mxCell id="9JSYzaQLczRlGTcXWpsd-265" value="" style="endArrow=classic;html=1;rounded=0;dashed=1;endFill=1;startArrow=none;startFill=0;strokeColor=#009900;" parent="1" source="9JSYzaQLczRlGTcXWpsd-260" target="9JSYzaQLczRlGTcXWpsd-254" edge="1">
          <mxGeometry width="50" height="50" relative="1" as="geometry">
            <mxPoint x="5608.85" y="151.8800000000001" as="sourcePoint" />
            <mxPoint x="5499" y="132.20000000000005" as="targetPoint" />
          </mxGeometry>
        </mxCell>
        <mxCell id="9JSYzaQLczRlGTcXWpsd-266" value="extend" style="text;html=1;align=center;verticalAlign=middle;resizable=0;points=[];autosize=1;strokeColor=none;fillColor=none;fontSize=10;" parent="1" vertex="1">
          <mxGeometry x="5519" y="172" width="50" height="30" as="geometry" />
        </mxCell>
        <mxCell id="LHVxIOyakxHDjJlF5Uot-6" value="&lt;div&gt;Common&lt;/div&gt;&lt;div&gt;User&lt;br&gt;&lt;/div&gt;" style="shape=umlActor;verticalLabelPosition=bottom;verticalAlign=top;html=1;outlineConnect=0;fontSize=10;" vertex="1" parent="1">
          <mxGeometry x="5060" y="710" width="30" height="60" as="geometry" />
        </mxCell>
        <mxCell id="LHVxIOyakxHDjJlF5Uot-7" value="Admin" style="shape=umlActor;verticalLabelPosition=bottom;verticalAlign=top;html=1;outlineConnect=0;fontSize=10;" vertex="1" parent="1">
          <mxGeometry x="5060" y="850" width="30" height="60" as="geometry" />
        </mxCell>
      </root>
    </mxGraphModel>
  </diagram>
</mxfile>
